<?xml version="1.0" encoding="utf-8" standalone="no"?>
<!DOCTYPE svg PUBLIC "-//W3C//DTD SVG 1.1//EN"
  "http://www.w3.org/Graphics/SVG/1.1/DTD/svg11.dtd">
<!-- Created with matplotlib (http://matplotlib.org/) -->
<svg height="576pt" version="1.1" viewBox="0 0 1080 576" width="1080pt" xmlns="http://www.w3.org/2000/svg" xmlns:xlink="http://www.w3.org/1999/xlink">
 <defs>
  <style type="text/css">
*{stroke-linecap:butt;stroke-linejoin:round;}
  </style>
 </defs>
 <g id="figure_1">
  <g id="patch_1">
   <path d="M 0 576 
L 1080 576 
L 1080 0 
L 0 0 
z
" style="fill:#ffffff;"/>
  </g>
  <g id="axes_1">
   <g id="patch_2">
    <path d="M 89.314725 495.161269 
L 1043.40129 495.161269 
L 1043.40129 33.480366 
L 89.314725 33.480366 
z
" style="fill:#eaeaf2;"/>
   </g>
   <g id="matplotlib.axis_1">
    <g id="xtick_1">
     <g id="line2d_1">
      <path clip-path="url(#p8d25cbaccd)" d="M 89.314725 495.161269 
L 89.314725 33.480366 
" style="fill:none;stroke:#ffffff;stroke-linecap:round;"/>
     </g>
     <g id="text_1">
      <!-- $\mathdefault{10^{-2}}$ -->
      <defs>
       <path d="M 37.25 0 
L 28.46875 0 
L 28.46875 56 
Q 25.296875 52.984375 20.140625 49.953125 
Q 14.984375 46.921875 10.890625 45.40625 
L 10.890625 53.90625 
Q 18.265625 57.375 23.78125 62.296875 
Q 29.296875 67.234375 31.59375 71.875 
L 37.25 71.875 
z
" id="ArialMT-31"/>
       <path d="M 4.15625 35.296875 
Q 4.15625 48 6.765625 55.734375 
Q 9.375 63.484375 14.515625 67.671875 
Q 19.671875 71.875 27.484375 71.875 
Q 33.25 71.875 37.59375 69.546875 
Q 41.9375 67.234375 44.765625 62.859375 
Q 47.609375 58.5 49.21875 52.21875 
Q 50.828125 45.953125 50.828125 35.296875 
Q 50.828125 22.703125 48.234375 14.96875 
Q 45.65625 7.234375 40.5 3 
Q 35.359375 -1.21875 27.484375 -1.21875 
Q 17.140625 -1.21875 11.234375 6.203125 
Q 4.15625 15.140625 4.15625 35.296875 
z
M 13.1875 35.296875 
Q 13.1875 17.671875 17.3125 11.828125 
Q 21.4375 6 27.484375 6 
Q 33.546875 6 37.671875 11.859375 
Q 41.796875 17.71875 41.796875 35.296875 
Q 41.796875 52.984375 37.671875 58.78125 
Q 33.546875 64.59375 27.390625 64.59375 
Q 21.34375 64.59375 17.71875 59.46875 
Q 13.1875 52.9375 13.1875 35.296875 
z
" id="ArialMT-30"/>
       <path d="M 52.828125 31.203125 
L 5.5625 31.203125 
L 5.5625 39.40625 
L 52.828125 39.40625 
z
" id="ArialMT-2212"/>
       <path d="M 50.34375 8.453125 
L 50.34375 0 
L 3.03125 0 
Q 2.9375 3.171875 4.046875 6.109375 
Q 5.859375 10.9375 9.828125 15.625 
Q 13.8125 20.3125 21.34375 26.46875 
Q 33.015625 36.03125 37.109375 41.625 
Q 41.21875 47.21875 41.21875 52.203125 
Q 41.21875 57.421875 37.46875 61 
Q 33.734375 64.59375 27.734375 64.59375 
Q 21.390625 64.59375 17.578125 60.78125 
Q 13.765625 56.984375 13.71875 50.25 
L 4.6875 51.171875 
Q 5.609375 61.28125 11.65625 66.578125 
Q 17.71875 71.875 27.9375 71.875 
Q 38.234375 71.875 44.234375 66.15625 
Q 50.25 60.453125 50.25 52 
Q 50.25 47.703125 48.484375 43.546875 
Q 46.734375 39.40625 42.65625 34.8125 
Q 38.578125 30.21875 29.109375 22.21875 
Q 21.1875 15.578125 18.9375 13.203125 
Q 16.703125 10.84375 15.234375 8.453125 
z
" id="ArialMT-32"/>
      </defs>
      <g style="fill:#262626;" transform="translate(70.801725 523.945644)scale(0.187 -0.187)">
       <use transform="translate(0 0.99375)" xlink:href="#ArialMT-31"/>
       <use transform="translate(55.615234 0.99375)" xlink:href="#ArialMT-30"/>
       <use transform="translate(112.972813 70.6875)scale(0.7)" xlink:href="#ArialMT-2212"/>
       <use transform="translate(153.851719 70.6875)scale(0.7)" xlink:href="#ArialMT-32"/>
      </g>
     </g>
    </g>
    <g id="xtick_2">
     <g id="line2d_2">
      <path clip-path="url(#p8d25cbaccd)" d="M 327.836366 495.161269 
L 327.836366 33.480366 
" style="fill:none;stroke:#ffffff;stroke-linecap:round;"/>
     </g>
     <g id="text_2">
      <!-- $\mathdefault{10^{-1}}$ -->
      <g style="fill:#262626;" transform="translate(309.323366 523.945644)scale(0.187 -0.187)">
       <use transform="translate(0 0.99375)" xlink:href="#ArialMT-31"/>
       <use transform="translate(55.615234 0.99375)" xlink:href="#ArialMT-30"/>
       <use transform="translate(112.972813 70.6875)scale(0.7)" xlink:href="#ArialMT-2212"/>
       <use transform="translate(153.851719 70.6875)scale(0.7)" xlink:href="#ArialMT-31"/>
      </g>
     </g>
    </g>
    <g id="xtick_3">
     <g id="line2d_3">
      <path clip-path="url(#p8d25cbaccd)" d="M 566.358007 495.161269 
L 566.358007 33.480366 
" style="fill:none;stroke:#ffffff;stroke-linecap:round;"/>
     </g>
     <g id="text_3">
      <!-- $\mathdefault{10^{0}}$ -->
      <g style="fill:#262626;" transform="translate(551.678507 523.945644)scale(0.187 -0.187)">
       <use transform="translate(0 0.99375)" xlink:href="#ArialMT-31"/>
       <use transform="translate(55.615234 0.99375)" xlink:href="#ArialMT-30"/>
       <use transform="translate(112.972813 70.6875)scale(0.7)" xlink:href="#ArialMT-30"/>
      </g>
     </g>
    </g>
    <g id="xtick_4">
     <g id="line2d_4">
      <path clip-path="url(#p8d25cbaccd)" d="M 804.879648 495.161269 
L 804.879648 33.480366 
" style="fill:none;stroke:#ffffff;stroke-linecap:round;"/>
     </g>
     <g id="text_4">
      <!-- $\mathdefault{10^{1}}$ -->
      <g style="fill:#262626;" transform="translate(790.200148 523.945644)scale(0.187 -0.187)">
       <use transform="translate(0 0.99375)" xlink:href="#ArialMT-31"/>
       <use transform="translate(55.615234 0.99375)" xlink:href="#ArialMT-30"/>
       <use transform="translate(112.972813 70.6875)scale(0.7)" xlink:href="#ArialMT-31"/>
      </g>
     </g>
    </g>
    <g id="xtick_5">
     <g id="line2d_5">
      <path clip-path="url(#p8d25cbaccd)" d="M 1043.40129 495.161269 
L 1043.40129 33.480366 
" style="fill:none;stroke:#ffffff;stroke-linecap:round;"/>
     </g>
     <g id="text_5">
      <!-- $\mathdefault{10^{2}}$ -->
      <g style="fill:#262626;" transform="translate(1028.72179 523.945644)scale(0.187 -0.187)">
       <use transform="translate(0 0.99375)" xlink:href="#ArialMT-31"/>
       <use transform="translate(55.615234 0.99375)" xlink:href="#ArialMT-30"/>
       <use transform="translate(112.972813 70.6875)scale(0.7)" xlink:href="#ArialMT-32"/>
      </g>
     </g>
    </g>
    <g id="xtick_6">
     <g id="line2d_6">
      <path clip-path="url(#p8d25cbaccd)" d="M 161.116893 495.161269 
L 161.116893 33.480366 
" style="fill:none;stroke:#ffffff;stroke-linecap:round;"/>
     </g>
    </g>
    <g id="xtick_7">
     <g id="line2d_7">
      <path clip-path="url(#p8d25cbaccd)" d="M 203.118469 495.161269 
L 203.118469 33.480366 
" style="fill:none;stroke:#ffffff;stroke-linecap:round;"/>
     </g>
    </g>
    <g id="xtick_8">
     <g id="line2d_8">
      <path clip-path="url(#p8d25cbaccd)" d="M 232.919062 495.161269 
L 232.919062 33.480366 
" style="fill:none;stroke:#ffffff;stroke-linecap:round;"/>
     </g>
    </g>
    <g id="xtick_9">
     <g id="line2d_9">
      <path clip-path="url(#p8d25cbaccd)" d="M 256.034197 495.161269 
L 256.034197 33.480366 
" style="fill:none;stroke:#ffffff;stroke-linecap:round;"/>
     </g>
    </g>
    <g id="xtick_10">
     <g id="line2d_10">
      <path clip-path="url(#p8d25cbaccd)" d="M 274.920638 495.161269 
L 274.920638 33.480366 
" style="fill:none;stroke:#ffffff;stroke-linecap:round;"/>
     </g>
    </g>
    <g id="xtick_11">
     <g id="line2d_11">
      <path clip-path="url(#p8d25cbaccd)" d="M 290.888896 495.161269 
L 290.888896 33.480366 
" style="fill:none;stroke:#ffffff;stroke-linecap:round;"/>
     </g>
    </g>
    <g id="xtick_12">
     <g id="line2d_12">
      <path clip-path="url(#p8d25cbaccd)" d="M 304.72123 495.161269 
L 304.72123 33.480366 
" style="fill:none;stroke:#ffffff;stroke-linecap:round;"/>
     </g>
    </g>
    <g id="xtick_13">
     <g id="line2d_13">
      <path clip-path="url(#p8d25cbaccd)" d="M 316.922214 495.161269 
L 316.922214 33.480366 
" style="fill:none;stroke:#ffffff;stroke-linecap:round;"/>
     </g>
    </g>
    <g id="xtick_14">
     <g id="line2d_14">
      <path clip-path="url(#p8d25cbaccd)" d="M 399.638534 495.161269 
L 399.638534 33.480366 
" style="fill:none;stroke:#ffffff;stroke-linecap:round;"/>
     </g>
    </g>
    <g id="xtick_15">
     <g id="line2d_15">
      <path clip-path="url(#p8d25cbaccd)" d="M 441.640111 495.161269 
L 441.640111 33.480366 
" style="fill:none;stroke:#ffffff;stroke-linecap:round;"/>
     </g>
    </g>
    <g id="xtick_16">
     <g id="line2d_16">
      <path clip-path="url(#p8d25cbaccd)" d="M 471.440703 495.161269 
L 471.440703 33.480366 
" style="fill:none;stroke:#ffffff;stroke-linecap:round;"/>
     </g>
    </g>
    <g id="xtick_17">
     <g id="line2d_17">
      <path clip-path="url(#p8d25cbaccd)" d="M 494.555838 495.161269 
L 494.555838 33.480366 
" style="fill:none;stroke:#ffffff;stroke-linecap:round;"/>
     </g>
    </g>
    <g id="xtick_18">
     <g id="line2d_18">
      <path clip-path="url(#p8d25cbaccd)" d="M 513.442279 495.161269 
L 513.442279 33.480366 
" style="fill:none;stroke:#ffffff;stroke-linecap:round;"/>
     </g>
    </g>
    <g id="xtick_19">
     <g id="line2d_19">
      <path clip-path="url(#p8d25cbaccd)" d="M 529.410537 495.161269 
L 529.410537 33.480366 
" style="fill:none;stroke:#ffffff;stroke-linecap:round;"/>
     </g>
    </g>
    <g id="xtick_20">
     <g id="line2d_20">
      <path clip-path="url(#p8d25cbaccd)" d="M 543.242872 495.161269 
L 543.242872 33.480366 
" style="fill:none;stroke:#ffffff;stroke-linecap:round;"/>
     </g>
    </g>
    <g id="xtick_21">
     <g id="line2d_21">
      <path clip-path="url(#p8d25cbaccd)" d="M 555.443855 495.161269 
L 555.443855 33.480366 
" style="fill:none;stroke:#ffffff;stroke-linecap:round;"/>
     </g>
    </g>
    <g id="xtick_22">
     <g id="line2d_22">
      <path clip-path="url(#p8d25cbaccd)" d="M 638.160176 495.161269 
L 638.160176 33.480366 
" style="fill:none;stroke:#ffffff;stroke-linecap:round;"/>
     </g>
    </g>
    <g id="xtick_23">
     <g id="line2d_23">
      <path clip-path="url(#p8d25cbaccd)" d="M 680.161752 495.161269 
L 680.161752 33.480366 
" style="fill:none;stroke:#ffffff;stroke-linecap:round;"/>
     </g>
    </g>
    <g id="xtick_24">
     <g id="line2d_24">
      <path clip-path="url(#p8d25cbaccd)" d="M 709.962344 495.161269 
L 709.962344 33.480366 
" style="fill:none;stroke:#ffffff;stroke-linecap:round;"/>
     </g>
    </g>
    <g id="xtick_25">
     <g id="line2d_25">
      <path clip-path="url(#p8d25cbaccd)" d="M 733.07748 495.161269 
L 733.07748 33.480366 
" style="fill:none;stroke:#ffffff;stroke-linecap:round;"/>
     </g>
    </g>
    <g id="xtick_26">
     <g id="line2d_26">
      <path clip-path="url(#p8d25cbaccd)" d="M 751.96392 495.161269 
L 751.96392 33.480366 
" style="fill:none;stroke:#ffffff;stroke-linecap:round;"/>
     </g>
    </g>
    <g id="xtick_27">
     <g id="line2d_27">
      <path clip-path="url(#p8d25cbaccd)" d="M 767.932179 495.161269 
L 767.932179 33.480366 
" style="fill:none;stroke:#ffffff;stroke-linecap:round;"/>
     </g>
    </g>
    <g id="xtick_28">
     <g id="line2d_28">
      <path clip-path="url(#p8d25cbaccd)" d="M 781.764513 495.161269 
L 781.764513 33.480366 
" style="fill:none;stroke:#ffffff;stroke-linecap:round;"/>
     </g>
    </g>
    <g id="xtick_29">
     <g id="line2d_29">
      <path clip-path="url(#p8d25cbaccd)" d="M 793.965497 495.161269 
L 793.965497 33.480366 
" style="fill:none;stroke:#ffffff;stroke-linecap:round;"/>
     </g>
    </g>
    <g id="xtick_30">
     <g id="line2d_30">
      <path clip-path="url(#p8d25cbaccd)" d="M 876.681817 495.161269 
L 876.681817 33.480366 
" style="fill:none;stroke:#ffffff;stroke-linecap:round;"/>
     </g>
    </g>
    <g id="xtick_31">
     <g id="line2d_31">
      <path clip-path="url(#p8d25cbaccd)" d="M 918.683393 495.161269 
L 918.683393 33.480366 
" style="fill:none;stroke:#ffffff;stroke-linecap:round;"/>
     </g>
    </g>
    <g id="xtick_32">
     <g id="line2d_32">
      <path clip-path="url(#p8d25cbaccd)" d="M 948.483986 495.161269 
L 948.483986 33.480366 
" style="fill:none;stroke:#ffffff;stroke-linecap:round;"/>
     </g>
    </g>
    <g id="xtick_33">
     <g id="line2d_33">
      <path clip-path="url(#p8d25cbaccd)" d="M 971.599121 495.161269 
L 971.599121 33.480366 
" style="fill:none;stroke:#ffffff;stroke-linecap:round;"/>
     </g>
    </g>
    <g id="xtick_34">
     <g id="line2d_34">
      <path clip-path="url(#p8d25cbaccd)" d="M 990.485562 495.161269 
L 990.485562 33.480366 
" style="fill:none;stroke:#ffffff;stroke-linecap:round;"/>
     </g>
    </g>
    <g id="xtick_35">
     <g id="line2d_35">
      <path clip-path="url(#p8d25cbaccd)" d="M 1006.45382 495.161269 
L 1006.45382 33.480366 
" style="fill:none;stroke:#ffffff;stroke-linecap:round;"/>
     </g>
    </g>
    <g id="xtick_36">
     <g id="line2d_36">
      <path clip-path="url(#p8d25cbaccd)" d="M 1020.286154 495.161269 
L 1020.286154 33.480366 
" style="fill:none;stroke:#ffffff;stroke-linecap:round;"/>
     </g>
    </g>
    <g id="xtick_37">
     <g id="line2d_37">
      <path clip-path="url(#p8d25cbaccd)" d="M 1032.487138 495.161269 
L 1032.487138 33.480366 
" style="fill:none;stroke:#ffffff;stroke-linecap:round;"/>
     </g>
    </g>
    <g id="text_6">
     <!-- Arithmetic Intensity -->
     <defs>
      <path d="M -0.140625 0 
L 27.34375 71.578125 
L 37.546875 71.578125 
L 66.84375 0 
L 56.0625 0 
L 47.703125 21.6875 
L 17.78125 21.6875 
L 9.90625 0 
z
M 20.515625 29.390625 
L 44.78125 29.390625 
L 37.3125 49.21875 
Q 33.890625 58.25 32.234375 64.0625 
Q 30.859375 57.171875 28.375 50.390625 
z
" id="ArialMT-41"/>
      <path d="M 6.5 0 
L 6.5 51.859375 
L 14.40625 51.859375 
L 14.40625 44 
Q 17.4375 49.515625 20 51.265625 
Q 22.5625 53.03125 25.640625 53.03125 
Q 30.078125 53.03125 34.671875 50.203125 
L 31.640625 42.046875 
Q 28.421875 43.953125 25.203125 43.953125 
Q 22.3125 43.953125 20.015625 42.21875 
Q 17.71875 40.484375 16.75 37.40625 
Q 15.28125 32.71875 15.28125 27.15625 
L 15.28125 0 
z
" id="ArialMT-72"/>
      <path d="M 6.640625 61.46875 
L 6.640625 71.578125 
L 15.4375 71.578125 
L 15.4375 61.46875 
z
M 6.640625 0 
L 6.640625 51.859375 
L 15.4375 51.859375 
L 15.4375 0 
z
" id="ArialMT-69"/>
      <path d="M 25.78125 7.859375 
L 27.046875 0.09375 
Q 23.34375 -0.6875 20.40625 -0.6875 
Q 15.625 -0.6875 12.984375 0.828125 
Q 10.359375 2.34375 9.28125 4.8125 
Q 8.203125 7.28125 8.203125 15.1875 
L 8.203125 45.015625 
L 1.765625 45.015625 
L 1.765625 51.859375 
L 8.203125 51.859375 
L 8.203125 64.703125 
L 16.9375 69.96875 
L 16.9375 51.859375 
L 25.78125 51.859375 
L 25.78125 45.015625 
L 16.9375 45.015625 
L 16.9375 14.703125 
Q 16.9375 10.9375 17.40625 9.859375 
Q 17.875 8.796875 18.921875 8.15625 
Q 19.96875 7.515625 21.921875 7.515625 
Q 23.390625 7.515625 25.78125 7.859375 
z
" id="ArialMT-74"/>
      <path d="M 6.59375 0 
L 6.59375 71.578125 
L 15.375 71.578125 
L 15.375 45.90625 
Q 21.53125 53.03125 30.90625 53.03125 
Q 36.671875 53.03125 40.921875 50.75 
Q 45.171875 48.484375 47 44.484375 
Q 48.828125 40.484375 48.828125 32.859375 
L 48.828125 0 
L 40.046875 0 
L 40.046875 32.859375 
Q 40.046875 39.453125 37.1875 42.453125 
Q 34.328125 45.453125 29.109375 45.453125 
Q 25.203125 45.453125 21.75 43.421875 
Q 18.3125 41.40625 16.84375 37.9375 
Q 15.375 34.46875 15.375 28.375 
L 15.375 0 
z
" id="ArialMT-68"/>
      <path d="M 6.59375 0 
L 6.59375 51.859375 
L 14.453125 51.859375 
L 14.453125 44.578125 
Q 16.890625 48.390625 20.9375 50.703125 
Q 25 53.03125 30.171875 53.03125 
Q 35.9375 53.03125 39.625 50.640625 
Q 43.3125 48.25 44.828125 43.953125 
Q 50.984375 53.03125 60.84375 53.03125 
Q 68.5625 53.03125 72.703125 48.75 
Q 76.859375 44.484375 76.859375 35.59375 
L 76.859375 0 
L 68.109375 0 
L 68.109375 32.671875 
Q 68.109375 37.9375 67.25 40.25 
Q 66.40625 42.578125 64.15625 43.984375 
Q 61.921875 45.40625 58.890625 45.40625 
Q 53.421875 45.40625 49.796875 41.765625 
Q 46.1875 38.140625 46.1875 30.125 
L 46.1875 0 
L 37.40625 0 
L 37.40625 33.6875 
Q 37.40625 39.546875 35.25 42.46875 
Q 33.109375 45.40625 28.21875 45.40625 
Q 24.515625 45.40625 21.359375 43.453125 
Q 18.21875 41.5 16.796875 37.734375 
Q 15.375 33.984375 15.375 26.90625 
L 15.375 0 
z
" id="ArialMT-6d"/>
      <path d="M 42.09375 16.703125 
L 51.171875 15.578125 
Q 49.03125 7.625 43.21875 3.21875 
Q 37.40625 -1.171875 28.375 -1.171875 
Q 17 -1.171875 10.328125 5.828125 
Q 3.65625 12.84375 3.65625 25.484375 
Q 3.65625 38.578125 10.390625 45.796875 
Q 17.140625 53.03125 27.875 53.03125 
Q 38.28125 53.03125 44.875 45.953125 
Q 51.46875 38.875 51.46875 26.03125 
Q 51.46875 25.25 51.421875 23.6875 
L 12.75 23.6875 
Q 13.234375 15.140625 17.578125 10.59375 
Q 21.921875 6.0625 28.421875 6.0625 
Q 33.25 6.0625 36.671875 8.59375 
Q 40.09375 11.140625 42.09375 16.703125 
z
M 13.234375 30.90625 
L 42.1875 30.90625 
Q 41.609375 37.453125 38.875 40.71875 
Q 34.671875 45.796875 27.984375 45.796875 
Q 21.921875 45.796875 17.796875 41.75 
Q 13.671875 37.703125 13.234375 30.90625 
z
" id="ArialMT-65"/>
      <path d="M 40.4375 19 
L 49.078125 17.875 
Q 47.65625 8.9375 41.8125 3.875 
Q 35.984375 -1.171875 27.484375 -1.171875 
Q 16.84375 -1.171875 10.375 5.78125 
Q 3.90625 12.75 3.90625 25.734375 
Q 3.90625 34.125 6.6875 40.421875 
Q 9.46875 46.734375 15.15625 49.875 
Q 20.84375 53.03125 27.546875 53.03125 
Q 35.984375 53.03125 41.359375 48.75 
Q 46.734375 44.484375 48.25 36.625 
L 39.703125 35.296875 
Q 38.484375 40.53125 35.375 43.15625 
Q 32.28125 45.796875 27.875 45.796875 
Q 21.234375 45.796875 17.078125 41.03125 
Q 12.9375 36.28125 12.9375 25.984375 
Q 12.9375 15.53125 16.9375 10.796875 
Q 20.953125 6.0625 27.390625 6.0625 
Q 32.5625 6.0625 36.03125 9.234375 
Q 39.5 12.40625 40.4375 19 
z
" id="ArialMT-63"/>
      <path id="ArialMT-20"/>
      <path d="M 9.328125 0 
L 9.328125 71.578125 
L 18.796875 71.578125 
L 18.796875 0 
z
" id="ArialMT-49"/>
      <path d="M 6.59375 0 
L 6.59375 51.859375 
L 14.5 51.859375 
L 14.5 44.484375 
Q 20.21875 53.03125 31 53.03125 
Q 35.6875 53.03125 39.625 51.34375 
Q 43.5625 49.65625 45.515625 46.921875 
Q 47.46875 44.1875 48.25 40.4375 
Q 48.734375 37.984375 48.734375 31.890625 
L 48.734375 0 
L 39.9375 0 
L 39.9375 31.546875 
Q 39.9375 36.921875 38.90625 39.578125 
Q 37.890625 42.234375 35.28125 43.8125 
Q 32.671875 45.40625 29.15625 45.40625 
Q 23.53125 45.40625 19.453125 41.84375 
Q 15.375 38.28125 15.375 28.328125 
L 15.375 0 
z
" id="ArialMT-6e"/>
      <path d="M 3.078125 15.484375 
L 11.765625 16.84375 
Q 12.5 11.625 15.84375 8.84375 
Q 19.1875 6.0625 25.203125 6.0625 
Q 31.25 6.0625 34.171875 8.515625 
Q 37.109375 10.984375 37.109375 14.3125 
Q 37.109375 17.28125 34.515625 19 
Q 32.71875 20.171875 25.53125 21.96875 
Q 15.875 24.421875 12.140625 26.203125 
Q 8.40625 27.984375 6.46875 31.125 
Q 4.546875 34.28125 4.546875 38.09375 
Q 4.546875 41.546875 6.125 44.5 
Q 7.71875 47.46875 10.453125 49.421875 
Q 12.5 50.921875 16.03125 51.96875 
Q 19.578125 53.03125 23.640625 53.03125 
Q 29.734375 53.03125 34.34375 51.265625 
Q 38.96875 49.515625 41.15625 46.5 
Q 43.359375 43.5 44.1875 38.484375 
L 35.59375 37.3125 
Q 35.015625 41.3125 32.203125 43.546875 
Q 29.390625 45.796875 24.265625 45.796875 
Q 18.21875 45.796875 15.625 43.796875 
Q 13.03125 41.796875 13.03125 39.109375 
Q 13.03125 37.40625 14.109375 36.03125 
Q 15.1875 34.625 17.484375 33.6875 
Q 18.796875 33.203125 25.25 31.453125 
Q 34.578125 28.953125 38.25 27.359375 
Q 41.9375 25.78125 44.03125 22.75 
Q 46.140625 19.734375 46.140625 15.234375 
Q 46.140625 10.84375 43.578125 6.953125 
Q 41.015625 3.078125 36.171875 0.953125 
Q 31.34375 -1.171875 25.25 -1.171875 
Q 15.140625 -1.171875 9.84375 3.03125 
Q 4.546875 7.234375 3.078125 15.484375 
z
" id="ArialMT-73"/>
      <path d="M 6.203125 -19.96875 
L 5.21875 -11.71875 
Q 8.109375 -12.5 10.25 -12.5 
Q 13.1875 -12.5 14.9375 -11.515625 
Q 16.703125 -10.546875 17.828125 -8.796875 
Q 18.65625 -7.46875 20.515625 -2.25 
Q 20.75 -1.515625 21.296875 -0.09375 
L 1.609375 51.859375 
L 11.078125 51.859375 
L 21.875 21.828125 
Q 23.96875 16.109375 25.640625 9.8125 
Q 27.15625 15.875 29.25 21.625 
L 40.328125 51.859375 
L 49.125 51.859375 
L 29.390625 -0.875 
Q 26.21875 -9.421875 24.46875 -12.640625 
Q 22.125 -17 19.09375 -19.015625 
Q 16.0625 -21.046875 11.859375 -21.046875 
Q 9.328125 -21.046875 6.203125 -19.96875 
z
" id="ArialMT-79"/>
     </defs>
     <g style="fill:#262626;" transform="translate(480.199882 546.264206)scale(0.204 -0.204)">
      <use xlink:href="#ArialMT-41"/>
      <use x="66.699219" xlink:href="#ArialMT-72"/>
      <use x="100" xlink:href="#ArialMT-69"/>
      <use x="122.216797" xlink:href="#ArialMT-74"/>
      <use x="150" xlink:href="#ArialMT-68"/>
      <use x="205.615234" xlink:href="#ArialMT-6d"/>
      <use x="288.916016" xlink:href="#ArialMT-65"/>
      <use x="344.53125" xlink:href="#ArialMT-74"/>
      <use x="372.314453" xlink:href="#ArialMT-69"/>
      <use x="394.53125" xlink:href="#ArialMT-63"/>
      <use x="444.53125" xlink:href="#ArialMT-20"/>
      <use x="472.314453" xlink:href="#ArialMT-49"/>
      <use x="500.097656" xlink:href="#ArialMT-6e"/>
      <use x="555.712891" xlink:href="#ArialMT-74"/>
      <use x="583.496094" xlink:href="#ArialMT-65"/>
      <use x="639.111328" xlink:href="#ArialMT-6e"/>
      <use x="694.726562" xlink:href="#ArialMT-73"/>
      <use x="744.726562" xlink:href="#ArialMT-69"/>
      <use x="766.943359" xlink:href="#ArialMT-74"/>
      <use x="794.726562" xlink:href="#ArialMT-79"/>
     </g>
    </g>
   </g>
   <g id="matplotlib.axis_2">
    <g id="ytick_1">
     <g id="line2d_38">
      <path clip-path="url(#p8d25cbaccd)" d="M 89.314725 495.161269 
L 1043.40129 495.161269 
" style="fill:none;stroke:#ffffff;stroke-linecap:round;"/>
     </g>
     <g id="text_7">
      <!-- $\mathdefault{10^{-1}}$ -->
      <g style="fill:#262626;" transform="translate(42.788725 504.803456)scale(0.187 -0.187)">
       <use transform="translate(0 0.99375)" xlink:href="#ArialMT-31"/>
       <use transform="translate(55.615234 0.99375)" xlink:href="#ArialMT-30"/>
       <use transform="translate(112.972813 70.6875)scale(0.7)" xlink:href="#ArialMT-2212"/>
       <use transform="translate(153.851719 70.6875)scale(0.7)" xlink:href="#ArialMT-31"/>
      </g>
     </g>
    </g>
    <g id="ytick_2">
     <g id="line2d_39">
      <path clip-path="url(#p8d25cbaccd)" d="M 89.314725 402.825088 
L 1043.40129 402.825088 
" style="fill:none;stroke:#ffffff;stroke-linecap:round;"/>
     </g>
     <g id="text_8">
      <!-- $\mathdefault{10^{0}}$ -->
      <g style="fill:#262626;" transform="translate(50.455725 412.467276)scale(0.187 -0.187)">
       <use transform="translate(0 0.99375)" xlink:href="#ArialMT-31"/>
       <use transform="translate(55.615234 0.99375)" xlink:href="#ArialMT-30"/>
       <use transform="translate(112.972813 70.6875)scale(0.7)" xlink:href="#ArialMT-30"/>
      </g>
     </g>
    </g>
    <g id="ytick_3">
     <g id="line2d_40">
      <path clip-path="url(#p8d25cbaccd)" d="M 89.314725 310.488908 
L 1043.40129 310.488908 
" style="fill:none;stroke:#ffffff;stroke-linecap:round;"/>
     </g>
     <g id="text_9">
      <!-- $\mathdefault{10^{1}}$ -->
      <g style="fill:#262626;" transform="translate(50.455725 320.131095)scale(0.187 -0.187)">
       <use transform="translate(0 0.99375)" xlink:href="#ArialMT-31"/>
       <use transform="translate(55.615234 0.99375)" xlink:href="#ArialMT-30"/>
       <use transform="translate(112.972813 70.6875)scale(0.7)" xlink:href="#ArialMT-31"/>
      </g>
     </g>
    </g>
    <g id="ytick_4">
     <g id="line2d_41">
      <path clip-path="url(#p8d25cbaccd)" d="M 89.314725 218.152727 
L 1043.40129 218.152727 
" style="fill:none;stroke:#ffffff;stroke-linecap:round;"/>
     </g>
     <g id="text_10">
      <!-- $\mathdefault{10^{2}}$ -->
      <g style="fill:#262626;" transform="translate(50.455725 227.794914)scale(0.187 -0.187)">
       <use transform="translate(0 0.99375)" xlink:href="#ArialMT-31"/>
       <use transform="translate(55.615234 0.99375)" xlink:href="#ArialMT-30"/>
       <use transform="translate(112.972813 70.6875)scale(0.7)" xlink:href="#ArialMT-32"/>
      </g>
     </g>
    </g>
    <g id="ytick_5">
     <g id="line2d_42">
      <path clip-path="url(#p8d25cbaccd)" d="M 89.314725 125.816546 
L 1043.40129 125.816546 
" style="fill:none;stroke:#ffffff;stroke-linecap:round;"/>
     </g>
     <g id="text_11">
      <!-- $\mathdefault{10^{3}}$ -->
      <defs>
       <path d="M 4.203125 18.890625 
L 12.984375 20.0625 
Q 14.5 12.59375 18.140625 9.296875 
Q 21.78125 6 27 6 
Q 33.203125 6 37.46875 10.296875 
Q 41.75 14.59375 41.75 20.953125 
Q 41.75 27 37.796875 30.921875 
Q 33.84375 34.859375 27.734375 34.859375 
Q 25.25 34.859375 21.53125 33.890625 
L 22.515625 41.609375 
Q 23.390625 41.5 23.921875 41.5 
Q 29.546875 41.5 34.03125 44.421875 
Q 38.53125 47.359375 38.53125 53.46875 
Q 38.53125 58.296875 35.25 61.46875 
Q 31.984375 64.65625 26.8125 64.65625 
Q 21.6875 64.65625 18.265625 61.421875 
Q 14.84375 58.203125 13.875 51.765625 
L 5.078125 53.328125 
Q 6.6875 62.15625 12.390625 67.015625 
Q 18.109375 71.875 26.609375 71.875 
Q 32.46875 71.875 37.390625 69.359375 
Q 42.328125 66.84375 44.9375 62.5 
Q 47.5625 58.15625 47.5625 53.265625 
Q 47.5625 48.640625 45.0625 44.828125 
Q 42.578125 41.015625 37.703125 38.765625 
Q 44.046875 37.3125 47.5625 32.6875 
Q 51.078125 28.078125 51.078125 21.140625 
Q 51.078125 11.765625 44.234375 5.25 
Q 37.40625 -1.265625 26.953125 -1.265625 
Q 17.53125 -1.265625 11.296875 4.34375 
Q 5.078125 9.96875 4.203125 18.890625 
z
" id="ArialMT-33"/>
      </defs>
      <g style="fill:#262626;" transform="translate(50.455725 135.458734)scale(0.187 -0.187)">
       <use transform="translate(0 0.99375)" xlink:href="#ArialMT-31"/>
       <use transform="translate(55.615234 0.99375)" xlink:href="#ArialMT-30"/>
       <use transform="translate(112.972813 70.6875)scale(0.7)" xlink:href="#ArialMT-33"/>
      </g>
     </g>
    </g>
    <g id="ytick_6">
     <g id="line2d_43">
      <path clip-path="url(#p8d25cbaccd)" d="M 89.314725 33.480366 
L 1043.40129 33.480366 
" style="fill:none;stroke:#ffffff;stroke-linecap:round;"/>
     </g>
     <g id="text_12">
      <!-- $\mathdefault{10^{4}}$ -->
      <defs>
       <path d="M 32.328125 0 
L 32.328125 17.140625 
L 1.265625 17.140625 
L 1.265625 25.203125 
L 33.9375 71.578125 
L 41.109375 71.578125 
L 41.109375 25.203125 
L 50.78125 25.203125 
L 50.78125 17.140625 
L 41.109375 17.140625 
L 41.109375 0 
z
M 32.328125 25.203125 
L 32.328125 57.46875 
L 9.90625 25.203125 
z
" id="ArialMT-34"/>
      </defs>
      <g style="fill:#262626;" transform="translate(50.455725 43.029053)scale(0.187 -0.187)">
       <use transform="translate(0 0.201563)" xlink:href="#ArialMT-31"/>
       <use transform="translate(55.615234 0.201563)" xlink:href="#ArialMT-30"/>
       <use transform="translate(112.972813 69.895313)scale(0.7)" xlink:href="#ArialMT-34"/>
      </g>
     </g>
    </g>
    <g id="ytick_7">
     <g id="line2d_44">
      <path clip-path="url(#p8d25cbaccd)" d="M 89.314725 467.365309 
L 1043.40129 467.365309 
" style="fill:none;stroke:#ffffff;stroke-linecap:round;"/>
     </g>
    </g>
    <g id="ytick_8">
     <g id="line2d_45">
      <path clip-path="url(#p8d25cbaccd)" d="M 89.314725 451.105714 
L 1043.40129 451.105714 
" style="fill:none;stroke:#ffffff;stroke-linecap:round;"/>
     </g>
    </g>
    <g id="ytick_9">
     <g id="line2d_46">
      <path clip-path="url(#p8d25cbaccd)" d="M 89.314725 439.569349 
L 1043.40129 439.569349 
" style="fill:none;stroke:#ffffff;stroke-linecap:round;"/>
     </g>
    </g>
    <g id="ytick_10">
     <g id="line2d_47">
      <path clip-path="url(#p8d25cbaccd)" d="M 89.314725 430.621048 
L 1043.40129 430.621048 
" style="fill:none;stroke:#ffffff;stroke-linecap:round;"/>
     </g>
    </g>
    <g id="ytick_11">
     <g id="line2d_48">
      <path clip-path="url(#p8d25cbaccd)" d="M 89.314725 423.309754 
L 1043.40129 423.309754 
" style="fill:none;stroke:#ffffff;stroke-linecap:round;"/>
     </g>
    </g>
    <g id="ytick_12">
     <g id="line2d_49">
      <path clip-path="url(#p8d25cbaccd)" d="M 89.314725 417.128143 
L 1043.40129 417.128143 
" style="fill:none;stroke:#ffffff;stroke-linecap:round;"/>
     </g>
    </g>
    <g id="ytick_13">
     <g id="line2d_50">
      <path clip-path="url(#p8d25cbaccd)" d="M 89.314725 411.773389 
L 1043.40129 411.773389 
" style="fill:none;stroke:#ffffff;stroke-linecap:round;"/>
     </g>
    </g>
    <g id="ytick_14">
     <g id="line2d_51">
      <path clip-path="url(#p8d25cbaccd)" d="M 89.314725 407.05016 
L 1043.40129 407.05016 
" style="fill:none;stroke:#ffffff;stroke-linecap:round;"/>
     </g>
    </g>
    <g id="ytick_15">
     <g id="line2d_52">
      <path clip-path="url(#p8d25cbaccd)" d="M 89.314725 375.029128 
L 1043.40129 375.029128 
" style="fill:none;stroke:#ffffff;stroke-linecap:round;"/>
     </g>
    </g>
    <g id="ytick_16">
     <g id="line2d_53">
      <path clip-path="url(#p8d25cbaccd)" d="M 89.314725 358.769534 
L 1043.40129 358.769534 
" style="fill:none;stroke:#ffffff;stroke-linecap:round;"/>
     </g>
    </g>
    <g id="ytick_17">
     <g id="line2d_54">
      <path clip-path="url(#p8d25cbaccd)" d="M 89.314725 347.233168 
L 1043.40129 347.233168 
" style="fill:none;stroke:#ffffff;stroke-linecap:round;"/>
     </g>
    </g>
    <g id="ytick_18">
     <g id="line2d_55">
      <path clip-path="url(#p8d25cbaccd)" d="M 89.314725 338.284868 
L 1043.40129 338.284868 
" style="fill:none;stroke:#ffffff;stroke-linecap:round;"/>
     </g>
    </g>
    <g id="ytick_19">
     <g id="line2d_56">
      <path clip-path="url(#p8d25cbaccd)" d="M 89.314725 330.973574 
L 1043.40129 330.973574 
" style="fill:none;stroke:#ffffff;stroke-linecap:round;"/>
     </g>
    </g>
    <g id="ytick_20">
     <g id="line2d_57">
      <path clip-path="url(#p8d25cbaccd)" d="M 89.314725 324.791963 
L 1043.40129 324.791963 
" style="fill:none;stroke:#ffffff;stroke-linecap:round;"/>
     </g>
    </g>
    <g id="ytick_21">
     <g id="line2d_58">
      <path clip-path="url(#p8d25cbaccd)" d="M 89.314725 319.437208 
L 1043.40129 319.437208 
" style="fill:none;stroke:#ffffff;stroke-linecap:round;"/>
     </g>
    </g>
    <g id="ytick_22">
     <g id="line2d_59">
      <path clip-path="url(#p8d25cbaccd)" d="M 89.314725 314.713979 
L 1043.40129 314.713979 
" style="fill:none;stroke:#ffffff;stroke-linecap:round;"/>
     </g>
    </g>
    <g id="ytick_23">
     <g id="line2d_60">
      <path clip-path="url(#p8d25cbaccd)" d="M 89.314725 282.692947 
L 1043.40129 282.692947 
" style="fill:none;stroke:#ffffff;stroke-linecap:round;"/>
     </g>
    </g>
    <g id="ytick_24">
     <g id="line2d_61">
      <path clip-path="url(#p8d25cbaccd)" d="M 89.314725 266.433353 
L 1043.40129 266.433353 
" style="fill:none;stroke:#ffffff;stroke-linecap:round;"/>
     </g>
    </g>
    <g id="ytick_25">
     <g id="line2d_62">
      <path clip-path="url(#p8d25cbaccd)" d="M 89.314725 254.896987 
L 1043.40129 254.896987 
" style="fill:none;stroke:#ffffff;stroke-linecap:round;"/>
     </g>
    </g>
    <g id="ytick_26">
     <g id="line2d_63">
      <path clip-path="url(#p8d25cbaccd)" d="M 89.314725 245.948687 
L 1043.40129 245.948687 
" style="fill:none;stroke:#ffffff;stroke-linecap:round;"/>
     </g>
    </g>
    <g id="ytick_27">
     <g id="line2d_64">
      <path clip-path="url(#p8d25cbaccd)" d="M 89.314725 238.637393 
L 1043.40129 238.637393 
" style="fill:none;stroke:#ffffff;stroke-linecap:round;"/>
     </g>
    </g>
    <g id="ytick_28">
     <g id="line2d_65">
      <path clip-path="url(#p8d25cbaccd)" d="M 89.314725 232.455782 
L 1043.40129 232.455782 
" style="fill:none;stroke:#ffffff;stroke-linecap:round;"/>
     </g>
    </g>
    <g id="ytick_29">
     <g id="line2d_66">
      <path clip-path="url(#p8d25cbaccd)" d="M 89.314725 227.101027 
L 1043.40129 227.101027 
" style="fill:none;stroke:#ffffff;stroke-linecap:round;"/>
     </g>
    </g>
    <g id="ytick_30">
     <g id="line2d_67">
      <path clip-path="url(#p8d25cbaccd)" d="M 89.314725 222.377799 
L 1043.40129 222.377799 
" style="fill:none;stroke:#ffffff;stroke-linecap:round;"/>
     </g>
    </g>
    <g id="ytick_31">
     <g id="line2d_68">
      <path clip-path="url(#p8d25cbaccd)" d="M 89.314725 190.356767 
L 1043.40129 190.356767 
" style="fill:none;stroke:#ffffff;stroke-linecap:round;"/>
     </g>
    </g>
    <g id="ytick_32">
     <g id="line2d_69">
      <path clip-path="url(#p8d25cbaccd)" d="M 89.314725 174.097173 
L 1043.40129 174.097173 
" style="fill:none;stroke:#ffffff;stroke-linecap:round;"/>
     </g>
    </g>
    <g id="ytick_33">
     <g id="line2d_70">
      <path clip-path="url(#p8d25cbaccd)" d="M 89.314725 162.560807 
L 1043.40129 162.560807 
" style="fill:none;stroke:#ffffff;stroke-linecap:round;"/>
     </g>
    </g>
    <g id="ytick_34">
     <g id="line2d_71">
      <path clip-path="url(#p8d25cbaccd)" d="M 89.314725 153.612506 
L 1043.40129 153.612506 
" style="fill:none;stroke:#ffffff;stroke-linecap:round;"/>
     </g>
    </g>
    <g id="ytick_35">
     <g id="line2d_72">
      <path clip-path="url(#p8d25cbaccd)" d="M 89.314725 146.301212 
L 1043.40129 146.301212 
" style="fill:none;stroke:#ffffff;stroke-linecap:round;"/>
     </g>
    </g>
    <g id="ytick_36">
     <g id="line2d_73">
      <path clip-path="url(#p8d25cbaccd)" d="M 89.314725 140.119602 
L 1043.40129 140.119602 
" style="fill:none;stroke:#ffffff;stroke-linecap:round;"/>
     </g>
    </g>
    <g id="ytick_37">
     <g id="line2d_74">
      <path clip-path="url(#p8d25cbaccd)" d="M 89.314725 134.764847 
L 1043.40129 134.764847 
" style="fill:none;stroke:#ffffff;stroke-linecap:round;"/>
     </g>
    </g>
    <g id="ytick_38">
     <g id="line2d_75">
      <path clip-path="url(#p8d25cbaccd)" d="M 89.314725 130.041618 
L 1043.40129 130.041618 
" style="fill:none;stroke:#ffffff;stroke-linecap:round;"/>
     </g>
    </g>
    <g id="ytick_39">
     <g id="line2d_76">
      <path clip-path="url(#p8d25cbaccd)" d="M 89.314725 98.020586 
L 1043.40129 98.020586 
" style="fill:none;stroke:#ffffff;stroke-linecap:round;"/>
     </g>
    </g>
    <g id="ytick_40">
     <g id="line2d_77">
      <path clip-path="url(#p8d25cbaccd)" d="M 89.314725 81.760992 
L 1043.40129 81.760992 
" style="fill:none;stroke:#ffffff;stroke-linecap:round;"/>
     </g>
    </g>
    <g id="ytick_41">
     <g id="line2d_78">
      <path clip-path="url(#p8d25cbaccd)" d="M 89.314725 70.224626 
L 1043.40129 70.224626 
" style="fill:none;stroke:#ffffff;stroke-linecap:round;"/>
     </g>
    </g>
    <g id="ytick_42">
     <g id="line2d_79">
      <path clip-path="url(#p8d25cbaccd)" d="M 89.314725 61.276326 
L 1043.40129 61.276326 
" style="fill:none;stroke:#ffffff;stroke-linecap:round;"/>
     </g>
    </g>
    <g id="ytick_43">
     <g id="line2d_80">
      <path clip-path="url(#p8d25cbaccd)" d="M 89.314725 53.965032 
L 1043.40129 53.965032 
" style="fill:none;stroke:#ffffff;stroke-linecap:round;"/>
     </g>
    </g>
    <g id="ytick_44">
     <g id="line2d_81">
      <path clip-path="url(#p8d25cbaccd)" d="M 89.314725 47.783421 
L 1043.40129 47.783421 
" style="fill:none;stroke:#ffffff;stroke-linecap:round;"/>
     </g>
    </g>
    <g id="ytick_45">
     <g id="line2d_82">
      <path clip-path="url(#p8d25cbaccd)" d="M 89.314725 42.428666 
L 1043.40129 42.428666 
" style="fill:none;stroke:#ffffff;stroke-linecap:round;"/>
     </g>
    </g>
    <g id="ytick_46">
     <g id="line2d_83">
      <path clip-path="url(#p8d25cbaccd)" d="M 89.314725 37.705438 
L 1043.40129 37.705438 
" style="fill:none;stroke:#ffffff;stroke-linecap:round;"/>
     </g>
    </g>
    <g id="text_13">
     <!-- Gflops/Sec -->
     <defs>
      <path d="M 41.21875 28.078125 
L 41.21875 36.46875 
L 71.53125 36.53125 
L 71.53125 9.96875 
Q 64.546875 4.390625 57.125 1.578125 
Q 49.703125 -1.21875 41.890625 -1.21875 
Q 31.34375 -1.21875 22.71875 3.296875 
Q 14.109375 7.8125 9.71875 16.359375 
Q 5.328125 24.90625 5.328125 35.453125 
Q 5.328125 45.90625 9.6875 54.953125 
Q 14.0625 64.015625 22.265625 68.40625 
Q 30.46875 72.796875 41.15625 72.796875 
Q 48.921875 72.796875 55.1875 70.28125 
Q 61.46875 67.78125 65.03125 63.28125 
Q 68.609375 58.796875 70.453125 51.5625 
L 61.921875 49.21875 
Q 60.296875 54.6875 57.90625 57.8125 
Q 55.515625 60.9375 51.0625 62.8125 
Q 46.625 64.703125 41.21875 64.703125 
Q 34.71875 64.703125 29.984375 62.71875 
Q 25.25 60.75 22.34375 57.515625 
Q 19.4375 54.296875 17.828125 50.4375 
Q 15.09375 43.796875 15.09375 36.03125 
Q 15.09375 26.46875 18.390625 20.015625 
Q 21.6875 13.578125 27.984375 10.453125 
Q 34.28125 7.328125 41.359375 7.328125 
Q 47.515625 7.328125 53.375 9.6875 
Q 59.234375 12.0625 62.25 14.75 
L 62.25 28.078125 
z
" id="ArialMT-47"/>
      <path d="M 8.6875 0 
L 8.6875 45.015625 
L 0.921875 45.015625 
L 0.921875 51.859375 
L 8.6875 51.859375 
L 8.6875 57.375 
Q 8.6875 62.59375 9.625 65.140625 
Q 10.890625 68.5625 14.078125 70.671875 
Q 17.28125 72.796875 23.046875 72.796875 
Q 26.765625 72.796875 31.25 71.921875 
L 29.9375 64.265625 
Q 27.203125 64.75 24.75 64.75 
Q 20.75 64.75 19.09375 63.03125 
Q 17.4375 61.328125 17.4375 56.640625 
L 17.4375 51.859375 
L 27.546875 51.859375 
L 27.546875 45.015625 
L 17.4375 45.015625 
L 17.4375 0 
z
" id="ArialMT-66"/>
      <path d="M 6.390625 0 
L 6.390625 71.578125 
L 15.1875 71.578125 
L 15.1875 0 
z
" id="ArialMT-6c"/>
      <path d="M 3.328125 25.921875 
Q 3.328125 40.328125 11.328125 47.265625 
Q 18.015625 53.03125 27.640625 53.03125 
Q 38.328125 53.03125 45.109375 46.015625 
Q 51.90625 39.015625 51.90625 26.65625 
Q 51.90625 16.65625 48.90625 10.90625 
Q 45.90625 5.171875 40.15625 2 
Q 34.421875 -1.171875 27.640625 -1.171875 
Q 16.75 -1.171875 10.03125 5.8125 
Q 3.328125 12.796875 3.328125 25.921875 
z
M 12.359375 25.921875 
Q 12.359375 15.96875 16.703125 11.015625 
Q 21.046875 6.0625 27.640625 6.0625 
Q 34.1875 6.0625 38.53125 11.03125 
Q 42.875 16.015625 42.875 26.21875 
Q 42.875 35.84375 38.5 40.796875 
Q 34.125 45.75 27.640625 45.75 
Q 21.046875 45.75 16.703125 40.8125 
Q 12.359375 35.890625 12.359375 25.921875 
z
" id="ArialMT-6f"/>
      <path d="M 6.59375 -19.875 
L 6.59375 51.859375 
L 14.59375 51.859375 
L 14.59375 45.125 
Q 17.4375 49.078125 21 51.046875 
Q 24.5625 53.03125 29.640625 53.03125 
Q 36.28125 53.03125 41.359375 49.609375 
Q 46.4375 46.1875 49.015625 39.953125 
Q 51.609375 33.734375 51.609375 26.3125 
Q 51.609375 18.359375 48.75 11.984375 
Q 45.90625 5.609375 40.453125 2.21875 
Q 35.015625 -1.171875 29 -1.171875 
Q 24.609375 -1.171875 21.109375 0.6875 
Q 17.625 2.546875 15.375 5.375 
L 15.375 -19.875 
z
M 14.546875 25.640625 
Q 14.546875 15.625 18.59375 10.84375 
Q 22.65625 6.0625 28.421875 6.0625 
Q 34.28125 6.0625 38.453125 11.015625 
Q 42.625 15.96875 42.625 26.375 
Q 42.625 36.28125 38.546875 41.203125 
Q 34.46875 46.140625 28.8125 46.140625 
Q 23.1875 46.140625 18.859375 40.890625 
Q 14.546875 35.640625 14.546875 25.640625 
z
" id="ArialMT-70"/>
      <path d="M 0 -1.21875 
L 20.75 72.796875 
L 27.78125 72.796875 
L 7.078125 -1.21875 
z
" id="ArialMT-2f"/>
      <path d="M 4.5 23 
L 13.421875 23.78125 
Q 14.0625 18.40625 16.375 14.96875 
Q 18.703125 11.53125 23.578125 9.40625 
Q 28.46875 7.28125 34.578125 7.28125 
Q 39.984375 7.28125 44.140625 8.890625 
Q 48.296875 10.5 50.3125 13.296875 
Q 52.34375 16.109375 52.34375 19.4375 
Q 52.34375 22.796875 50.390625 25.3125 
Q 48.4375 27.828125 43.953125 29.546875 
Q 41.0625 30.671875 31.203125 33.03125 
Q 21.34375 35.40625 17.390625 37.5 
Q 12.25 40.1875 9.734375 44.15625 
Q 7.234375 48.140625 7.234375 53.078125 
Q 7.234375 58.5 10.296875 63.203125 
Q 13.375 67.921875 19.28125 70.359375 
Q 25.203125 72.796875 32.421875 72.796875 
Q 40.375 72.796875 46.453125 70.234375 
Q 52.546875 67.671875 55.8125 62.6875 
Q 59.078125 57.71875 59.328125 51.421875 
L 50.25 50.734375 
Q 49.515625 57.515625 45.28125 60.984375 
Q 41.0625 64.453125 32.8125 64.453125 
Q 24.21875 64.453125 20.28125 61.296875 
Q 16.359375 58.15625 16.359375 53.71875 
Q 16.359375 49.859375 19.140625 47.359375 
Q 21.875 44.875 33.421875 42.265625 
Q 44.96875 39.65625 49.265625 37.703125 
Q 55.515625 34.8125 58.484375 30.390625 
Q 61.46875 25.984375 61.46875 20.21875 
Q 61.46875 14.5 58.203125 9.4375 
Q 54.9375 4.390625 48.796875 1.578125 
Q 42.671875 -1.21875 35.015625 -1.21875 
Q 25.296875 -1.21875 18.71875 1.609375 
Q 12.15625 4.4375 8.421875 10.125 
Q 4.6875 15.828125 4.5 23 
z
" id="ArialMT-53"/>
     </defs>
     <g style="fill:#262626;" transform="translate(34.734225 314.20838)rotate(-90)scale(0.204 -0.204)">
      <use xlink:href="#ArialMT-47"/>
      <use x="77.783203" xlink:href="#ArialMT-66"/>
      <use x="105.566406" xlink:href="#ArialMT-6c"/>
      <use x="127.783203" xlink:href="#ArialMT-6f"/>
      <use x="183.398438" xlink:href="#ArialMT-70"/>
      <use x="239.013672" xlink:href="#ArialMT-73"/>
      <use x="289.013672" xlink:href="#ArialMT-2f"/>
      <use x="316.796875" xlink:href="#ArialMT-53"/>
      <use x="383.496094" xlink:href="#ArialMT-65"/>
      <use x="439.111328" xlink:href="#ArialMT-63"/>
     </g>
    </g>
   </g>
   <g id="PathCollection_1">
    <path clip-path="url(#p8d25cbaccd)" d="M 300.654519 322.566767 
C 302.529788 322.566767 304.328503 321.821714 305.654519 320.495699 
C 306.980534 319.169683 307.725586 317.370968 307.725586 315.495699 
C 307.725586 313.62043 306.980534 311.821714 305.654519 310.495699 
C 304.328503 309.169683 302.529788 308.424631 300.654519 308.424631 
C 298.779249 308.424631 296.980534 309.169683 295.654519 310.495699 
C 294.328503 311.821714 293.583451 313.62043 293.583451 315.495699 
C 293.583451 317.370968 294.328503 319.169683 295.654519 320.495699 
C 296.980534 321.821714 298.779249 322.566767 300.654519 322.566767 
z
" style="fill:#4c72b0;stroke:#ffffff;stroke-width:0.75;"/>
    <path clip-path="url(#p8d25cbaccd)" d="M 351.449718 203.719338 
L 358.520786 189.577203 
L 344.378651 189.577203 
z
" style="fill:#dd8452;stroke:#ffffff;stroke-width:0.75;"/>
    <path clip-path="url(#p8d25cbaccd)" d="M 408.264437 183.718501 
L 401.193369 197.860637 
L 415.335505 197.860637 
z
" style="fill:#55a868;stroke:#ffffff;stroke-width:0.75;"/>
    <path clip-path="url(#p8d25cbaccd)" d="M 272.078263 335.492912 
L 286.220399 342.563979 
L 286.220399 328.421844 
z
" style="fill:#c44e52;stroke:#ffffff;stroke-width:0.75;"/>
   </g>
   <g id="PathCollection_2"/>
   <g id="PathCollection_3"/>
   <g id="PathCollection_4"/>
   <g id="PathCollection_5"/>
   <g id="PathCollection_6"/>
   <g id="line2d_84">
    <path clip-path="url(#p8d25cbaccd)" d="M 489.432621 85.085802 
L 1043.40129 85.085802 
" style="fill:none;stroke:#1b9e77;stroke-linecap:round;stroke-width:3;"/>
   </g>
   <g id="line2d_85">
    <path clip-path="url(#p8d25cbaccd)" d="M -1 275.656202 
L 489.432621 85.085802 
" style="fill:none;stroke:#d95f02;stroke-linecap:round;stroke-width:3;"/>
   </g>
   <g id="line2d_86">
    <path clip-path="url(#p8d25cbaccd)" d="M -1 307.92971 
L 572.688686 85.085802 
" style="fill:none;stroke:#7570b3;stroke-linecap:round;stroke-width:3;"/>
   </g>
   <g id="line2d_87">
    <path clip-path="url(#p8d25cbaccd)" d="M -1 353.195975 
L 689.560209 85.085802 
" style="fill:none;stroke:#e7298a;stroke-linecap:round;stroke-width:3;"/>
   </g>
   <g id="line2d_88"/>
   <g id="line2d_89"/>
   <g id="line2d_90"/>
   <g id="line2d_91"/>
   <g id="line2d_92"/>
   <g id="patch_3">
    <path d="M 89.314725 495.161269 
L 89.314725 33.480366 
" style="fill:none;stroke:#ffffff;stroke-linecap:square;stroke-linejoin:miter;stroke-width:1.25;"/>
   </g>
   <g id="patch_4">
    <path d="M 1043.40129 495.161269 
L 1043.40129 33.480366 
" style="fill:none;stroke:#ffffff;stroke-linecap:square;stroke-linejoin:miter;stroke-width:1.25;"/>
   </g>
   <g id="patch_5">
    <path d="M 89.314725 495.161269 
L 1043.40129 495.161269 
" style="fill:none;stroke:#ffffff;stroke-linecap:square;stroke-linejoin:miter;stroke-width:1.25;"/>
   </g>
   <g id="patch_6">
    <path d="M 89.314725 33.480366 
L 1043.40129 33.480366 
" style="fill:none;stroke:#ffffff;stroke-linecap:square;stroke-linejoin:miter;stroke-width:1.25;"/>
   </g>
   <g id="text_14">
    <!-- FP64 GFLOPs 2761.3 GFLOPs/s -->
    <defs>
     <path d="M 8.203125 0 
L 8.203125 71.578125 
L 56.5 71.578125 
L 56.5 63.140625 
L 17.671875 63.140625 
L 17.671875 40.96875 
L 51.265625 40.96875 
L 51.265625 32.515625 
L 17.671875 32.515625 
L 17.671875 0 
z
" id="ArialMT-46"/>
     <path d="M 7.71875 0 
L 7.71875 71.578125 
L 34.71875 71.578125 
Q 41.84375 71.578125 45.609375 70.90625 
Q 50.875 70.015625 54.4375 67.546875 
Q 58.015625 65.09375 60.1875 60.640625 
Q 62.359375 56.203125 62.359375 50.875 
Q 62.359375 41.75 56.546875 35.421875 
Q 50.734375 29.109375 35.546875 29.109375 
L 17.1875 29.109375 
L 17.1875 0 
z
M 17.1875 37.546875 
L 35.6875 37.546875 
Q 44.875 37.546875 48.734375 40.96875 
Q 52.59375 44.390625 52.59375 50.59375 
Q 52.59375 55.078125 50.3125 58.265625 
Q 48.046875 61.46875 44.34375 62.5 
Q 41.9375 63.140625 35.5 63.140625 
L 17.1875 63.140625 
z
" id="ArialMT-50"/>
     <path d="M 49.75 54.046875 
L 41.015625 53.375 
Q 39.84375 58.546875 37.703125 60.890625 
Q 34.125 64.65625 28.90625 64.65625 
Q 24.703125 64.65625 21.53125 62.3125 
Q 17.390625 59.28125 14.984375 53.46875 
Q 12.59375 47.65625 12.5 36.921875 
Q 15.671875 41.75 20.265625 44.09375 
Q 24.859375 46.4375 29.890625 46.4375 
Q 38.671875 46.4375 44.84375 39.96875 
Q 51.03125 33.5 51.03125 23.25 
Q 51.03125 16.5 48.125 10.71875 
Q 45.21875 4.9375 40.140625 1.859375 
Q 35.0625 -1.21875 28.609375 -1.21875 
Q 17.625 -1.21875 10.6875 6.859375 
Q 3.765625 14.9375 3.765625 33.5 
Q 3.765625 54.25 11.421875 63.671875 
Q 18.109375 71.875 29.4375 71.875 
Q 37.890625 71.875 43.28125 67.140625 
Q 48.6875 62.40625 49.75 54.046875 
z
M 13.875 23.1875 
Q 13.875 18.65625 15.796875 14.5 
Q 17.71875 10.359375 21.1875 8.171875 
Q 24.65625 6 28.46875 6 
Q 34.03125 6 38.03125 10.484375 
Q 42.046875 14.984375 42.046875 22.703125 
Q 42.046875 30.125 38.078125 34.390625 
Q 34.125 38.671875 28.125 38.671875 
Q 22.171875 38.671875 18.015625 34.390625 
Q 13.875 30.125 13.875 23.1875 
z
" id="ArialMT-36"/>
     <path d="M 7.328125 0 
L 7.328125 71.578125 
L 16.796875 71.578125 
L 16.796875 8.453125 
L 52.046875 8.453125 
L 52.046875 0 
z
" id="ArialMT-4c"/>
     <path d="M 4.828125 34.859375 
Q 4.828125 52.6875 14.390625 62.765625 
Q 23.96875 72.859375 39.109375 72.859375 
Q 49.03125 72.859375 56.984375 68.109375 
Q 64.9375 63.375 69.109375 54.90625 
Q 73.296875 46.4375 73.296875 35.6875 
Q 73.296875 24.8125 68.890625 16.21875 
Q 64.5 7.625 56.4375 3.203125 
Q 48.390625 -1.21875 39.0625 -1.21875 
Q 28.953125 -1.21875 20.984375 3.65625 
Q 13.03125 8.546875 8.921875 16.984375 
Q 4.828125 25.4375 4.828125 34.859375 
z
M 14.59375 34.71875 
Q 14.59375 21.78125 21.546875 14.328125 
Q 28.515625 6.890625 39.015625 6.890625 
Q 49.703125 6.890625 56.609375 14.40625 
Q 63.53125 21.921875 63.53125 35.75 
Q 63.53125 44.484375 60.578125 51 
Q 57.625 57.515625 51.921875 61.109375 
Q 46.234375 64.703125 39.15625 64.703125 
Q 29.109375 64.703125 21.84375 57.78125 
Q 14.59375 50.875 14.59375 34.71875 
z
" id="ArialMT-4f"/>
     <path d="M 4.734375 62.203125 
L 4.734375 70.65625 
L 51.078125 70.65625 
L 51.078125 63.8125 
Q 44.234375 56.546875 37.515625 44.484375 
Q 30.8125 32.421875 27.15625 19.671875 
Q 24.515625 10.6875 23.78125 0 
L 14.75 0 
Q 14.890625 8.453125 18.0625 20.40625 
Q 21.234375 32.375 27.171875 43.484375 
Q 33.109375 54.59375 39.796875 62.203125 
z
" id="ArialMT-37"/>
     <path d="M 9.078125 0 
L 9.078125 10.015625 
L 19.09375 10.015625 
L 19.09375 0 
z
" id="ArialMT-2e"/>
    </defs>
    <g style="fill:#262626;" transform="translate(740.693977 82.560444)scale(0.204 -0.204)">
     <use xlink:href="#ArialMT-46"/>
     <use x="61.083984" xlink:href="#ArialMT-50"/>
     <use x="127.783203" xlink:href="#ArialMT-36"/>
     <use x="183.398438" xlink:href="#ArialMT-34"/>
     <use x="239.013672" xlink:href="#ArialMT-20"/>
     <use x="266.796875" xlink:href="#ArialMT-47"/>
     <use x="344.580078" xlink:href="#ArialMT-46"/>
     <use x="405.664062" xlink:href="#ArialMT-4c"/>
     <use x="461.279297" xlink:href="#ArialMT-4f"/>
     <use x="539.0625" xlink:href="#ArialMT-50"/>
     <use x="605.761719" xlink:href="#ArialMT-73"/>
     <use x="655.761719" xlink:href="#ArialMT-20"/>
     <use x="683.544922" xlink:href="#ArialMT-32"/>
     <use x="739.160156" xlink:href="#ArialMT-37"/>
     <use x="794.775391" xlink:href="#ArialMT-36"/>
     <use x="850.390625" xlink:href="#ArialMT-31"/>
     <use x="906.005859" xlink:href="#ArialMT-2e"/>
     <use x="933.789062" xlink:href="#ArialMT-33"/>
     <use x="989.404297" xlink:href="#ArialMT-20"/>
     <use x="1017.1875" xlink:href="#ArialMT-47"/>
     <use x="1094.970703" xlink:href="#ArialMT-46"/>
     <use x="1156.054688" xlink:href="#ArialMT-4c"/>
     <use x="1211.669922" xlink:href="#ArialMT-4f"/>
     <use x="1289.453125" xlink:href="#ArialMT-50"/>
     <use x="1356.152344" xlink:href="#ArialMT-73"/>
     <use x="1406.152344" xlink:href="#ArialMT-2f"/>
     <use x="1433.935547" xlink:href="#ArialMT-73"/>
    </g>
   </g>
   <g id="text_15">
    <!-- L1 5802.6 GB/s -->
    <defs>
     <path d="M 4.15625 18.75 
L 13.375 19.53125 
Q 14.40625 12.796875 18.140625 9.390625 
Q 21.875 6 27.15625 6 
Q 33.5 6 37.890625 10.78125 
Q 42.28125 15.578125 42.28125 23.484375 
Q 42.28125 31 38.0625 35.34375 
Q 33.84375 39.703125 27 39.703125 
Q 22.75 39.703125 19.328125 37.765625 
Q 15.921875 35.84375 13.96875 32.765625 
L 5.71875 33.84375 
L 12.640625 70.609375 
L 48.25 70.609375 
L 48.25 62.203125 
L 19.671875 62.203125 
L 15.828125 42.96875 
Q 22.265625 47.46875 29.34375 47.46875 
Q 38.71875 47.46875 45.15625 40.96875 
Q 51.609375 34.46875 51.609375 24.265625 
Q 51.609375 14.546875 45.953125 7.46875 
Q 39.0625 -1.21875 27.15625 -1.21875 
Q 17.390625 -1.21875 11.203125 4.25 
Q 5.03125 9.71875 4.15625 18.75 
z
" id="ArialMT-35"/>
     <path d="M 17.671875 38.8125 
Q 12.203125 40.828125 9.5625 44.53125 
Q 6.9375 48.25 6.9375 53.421875 
Q 6.9375 61.234375 12.546875 66.546875 
Q 18.171875 71.875 27.484375 71.875 
Q 36.859375 71.875 42.578125 66.421875 
Q 48.296875 60.984375 48.296875 53.171875 
Q 48.296875 48.1875 45.671875 44.5 
Q 43.0625 40.828125 37.75 38.8125 
Q 44.34375 36.671875 47.78125 31.875 
Q 51.21875 27.09375 51.21875 20.453125 
Q 51.21875 11.28125 44.71875 5.03125 
Q 38.234375 -1.21875 27.640625 -1.21875 
Q 17.046875 -1.21875 10.546875 5.046875 
Q 4.046875 11.328125 4.046875 20.703125 
Q 4.046875 27.6875 7.59375 32.390625 
Q 11.140625 37.109375 17.671875 38.8125 
z
M 15.921875 53.71875 
Q 15.921875 48.640625 19.1875 45.40625 
Q 22.46875 42.1875 27.6875 42.1875 
Q 32.765625 42.1875 36.015625 45.375 
Q 39.265625 48.578125 39.265625 53.21875 
Q 39.265625 58.0625 35.90625 61.359375 
Q 32.5625 64.65625 27.59375 64.65625 
Q 22.5625 64.65625 19.234375 61.421875 
Q 15.921875 58.203125 15.921875 53.71875 
z
M 13.09375 20.65625 
Q 13.09375 16.890625 14.875 13.375 
Q 16.65625 9.859375 20.171875 7.921875 
Q 23.6875 6 27.734375 6 
Q 34.03125 6 38.125 10.046875 
Q 42.234375 14.109375 42.234375 20.359375 
Q 42.234375 26.703125 38.015625 30.859375 
Q 33.796875 35.015625 27.4375 35.015625 
Q 21.234375 35.015625 17.15625 30.90625 
Q 13.09375 26.8125 13.09375 20.65625 
z
" id="ArialMT-38"/>
     <path d="M 7.328125 0 
L 7.328125 71.578125 
L 34.1875 71.578125 
Q 42.390625 71.578125 47.34375 69.40625 
Q 52.296875 67.234375 55.09375 62.71875 
Q 57.90625 58.203125 57.90625 53.265625 
Q 57.90625 48.6875 55.421875 44.625 
Q 52.9375 40.578125 47.90625 38.09375 
Q 54.390625 36.1875 57.875 31.59375 
Q 61.375 27 61.375 20.75 
Q 61.375 15.71875 59.25 11.390625 
Q 57.125 7.078125 54 4.734375 
Q 50.875 2.390625 46.15625 1.1875 
Q 41.453125 0 34.625 0 
z
M 16.796875 41.5 
L 32.28125 41.5 
Q 38.578125 41.5 41.3125 42.328125 
Q 44.921875 43.40625 46.75 45.890625 
Q 48.578125 48.390625 48.578125 52.15625 
Q 48.578125 55.71875 46.875 58.421875 
Q 45.171875 61.140625 41.984375 62.140625 
Q 38.8125 63.140625 31.109375 63.140625 
L 16.796875 63.140625 
z
M 16.796875 8.453125 
L 34.625 8.453125 
Q 39.203125 8.453125 41.0625 8.796875 
Q 44.34375 9.375 46.53125 10.734375 
Q 48.734375 12.109375 50.140625 14.71875 
Q 51.5625 17.328125 51.5625 20.75 
Q 51.5625 24.75 49.515625 27.703125 
Q 47.46875 30.671875 43.828125 31.859375 
Q 40.1875 33.0625 33.34375 33.0625 
L 16.796875 33.0625 
z
" id="ArialMT-42"/>
    </defs>
    <g style="fill:#262626;" transform="translate(94.901482 231.578393)rotate(-22.495063)scale(0.204 -0.204)">
     <use xlink:href="#ArialMT-4c"/>
     <use x="55.615234" xlink:href="#ArialMT-31"/>
     <use x="111.230469" xlink:href="#ArialMT-20"/>
     <use x="139.013672" xlink:href="#ArialMT-35"/>
     <use x="194.628906" xlink:href="#ArialMT-38"/>
     <use x="250.244141" xlink:href="#ArialMT-30"/>
     <use x="305.859375" xlink:href="#ArialMT-32"/>
     <use x="361.474609" xlink:href="#ArialMT-2e"/>
     <use x="389.257812" xlink:href="#ArialMT-36"/>
     <use x="444.873047" xlink:href="#ArialMT-20"/>
     <use x="472.65625" xlink:href="#ArialMT-47"/>
     <use x="550.439453" xlink:href="#ArialMT-42"/>
     <use x="617.138672" xlink:href="#ArialMT-2f"/>
     <use x="644.921875" xlink:href="#ArialMT-73"/>
    </g>
   </g>
   <g id="text_16">
    <!-- L2 2597.6 GB/s -->
    <defs>
     <path d="M 5.46875 16.546875 
L 13.921875 17.328125 
Q 14.984375 11.375 18.015625 8.6875 
Q 21.046875 6 25.78125 6 
Q 29.828125 6 32.875 7.859375 
Q 35.9375 9.71875 37.890625 12.8125 
Q 39.84375 15.921875 41.15625 21.1875 
Q 42.484375 26.46875 42.484375 31.9375 
Q 42.484375 32.515625 42.4375 33.6875 
Q 39.796875 29.5 35.234375 26.875 
Q 30.671875 24.265625 25.34375 24.265625 
Q 16.453125 24.265625 10.296875 30.703125 
Q 4.15625 37.15625 4.15625 47.703125 
Q 4.15625 58.59375 10.578125 65.234375 
Q 17 71.875 26.65625 71.875 
Q 33.640625 71.875 39.421875 68.109375 
Q 45.21875 64.359375 48.21875 57.390625 
Q 51.21875 50.4375 51.21875 37.25 
Q 51.21875 23.53125 48.234375 15.40625 
Q 45.265625 7.28125 39.375 3.03125 
Q 33.5 -1.21875 25.59375 -1.21875 
Q 17.1875 -1.21875 11.859375 3.4375 
Q 6.546875 8.109375 5.46875 16.546875 
z
M 41.453125 48.140625 
Q 41.453125 55.71875 37.421875 60.15625 
Q 33.40625 64.59375 27.734375 64.59375 
Q 21.875 64.59375 17.53125 59.8125 
Q 13.1875 55.03125 13.1875 47.40625 
Q 13.1875 40.578125 17.3125 36.296875 
Q 21.4375 32.03125 27.484375 32.03125 
Q 33.59375 32.03125 37.515625 36.296875 
Q 41.453125 40.578125 41.453125 48.140625 
z
" id="ArialMT-39"/>
    </defs>
    <g style="fill:#262626;" transform="translate(94.900047 262.350547)rotate(-22.488971)scale(0.204 -0.204)">
     <use xlink:href="#ArialMT-4c"/>
     <use x="55.615234" xlink:href="#ArialMT-32"/>
     <use x="111.230469" xlink:href="#ArialMT-20"/>
     <use x="139.013672" xlink:href="#ArialMT-32"/>
     <use x="194.628906" xlink:href="#ArialMT-35"/>
     <use x="250.244141" xlink:href="#ArialMT-39"/>
     <use x="305.859375" xlink:href="#ArialMT-37"/>
     <use x="361.474609" xlink:href="#ArialMT-2e"/>
     <use x="389.257812" xlink:href="#ArialMT-36"/>
     <use x="444.873047" xlink:href="#ArialMT-20"/>
     <use x="472.65625" xlink:href="#ArialMT-47"/>
     <use x="550.439453" xlink:href="#ArialMT-42"/>
     <use x="617.138672" xlink:href="#ArialMT-2f"/>
     <use x="644.921875" xlink:href="#ArialMT-73"/>
    </g>
   </g>
   <g id="text_17">
    <!-- STREAM HBM 840.6 GB/s -->
    <defs>
     <path d="M 25.921875 0 
L 25.921875 63.140625 
L 2.34375 63.140625 
L 2.34375 71.578125 
L 59.078125 71.578125 
L 59.078125 63.140625 
L 35.40625 63.140625 
L 35.40625 0 
z
" id="ArialMT-54"/>
     <path d="M 7.859375 0 
L 7.859375 71.578125 
L 39.59375 71.578125 
Q 49.171875 71.578125 54.140625 69.640625 
Q 59.125 67.71875 62.109375 62.828125 
Q 65.09375 57.953125 65.09375 52.046875 
Q 65.09375 44.4375 60.15625 39.203125 
Q 55.21875 33.984375 44.921875 32.5625 
Q 48.6875 30.765625 50.640625 29 
Q 54.78125 25.203125 58.5 19.484375 
L 70.953125 0 
L 59.03125 0 
L 49.5625 14.890625 
Q 45.40625 21.34375 42.71875 24.75 
Q 40.046875 28.171875 37.921875 29.53125 
Q 35.796875 30.90625 33.59375 31.453125 
Q 31.984375 31.78125 28.328125 31.78125 
L 17.328125 31.78125 
L 17.328125 0 
z
M 17.328125 39.984375 
L 37.703125 39.984375 
Q 44.1875 39.984375 47.84375 41.328125 
Q 51.515625 42.671875 53.421875 45.625 
Q 55.328125 48.578125 55.328125 52.046875 
Q 55.328125 57.125 51.640625 60.390625 
Q 47.953125 63.671875 39.984375 63.671875 
L 17.328125 63.671875 
z
" id="ArialMT-52"/>
     <path d="M 7.90625 0 
L 7.90625 71.578125 
L 59.671875 71.578125 
L 59.671875 63.140625 
L 17.390625 63.140625 
L 17.390625 41.21875 
L 56.984375 41.21875 
L 56.984375 32.8125 
L 17.390625 32.8125 
L 17.390625 8.453125 
L 61.328125 8.453125 
L 61.328125 0 
z
" id="ArialMT-45"/>
     <path d="M 7.421875 0 
L 7.421875 71.578125 
L 21.6875 71.578125 
L 38.625 20.90625 
Q 40.96875 13.8125 42.046875 10.296875 
Q 43.265625 14.203125 45.84375 21.78125 
L 62.984375 71.578125 
L 75.734375 71.578125 
L 75.734375 0 
L 66.609375 0 
L 66.609375 59.90625 
L 45.796875 0 
L 37.25 0 
L 16.546875 60.9375 
L 16.546875 0 
z
" id="ArialMT-4d"/>
     <path d="M 8.015625 0 
L 8.015625 71.578125 
L 17.484375 71.578125 
L 17.484375 42.1875 
L 54.6875 42.1875 
L 54.6875 71.578125 
L 64.15625 71.578125 
L 64.15625 0 
L 54.6875 0 
L 54.6875 33.734375 
L 17.484375 33.734375 
L 17.484375 0 
z
" id="ArialMT-48"/>
    </defs>
    <g style="fill:#262626;" transform="translate(94.894619 341.472391)rotate(-22.46592)scale(0.204 -0.204)">
     <use xlink:href="#ArialMT-53"/>
     <use x="66.699219" xlink:href="#ArialMT-54"/>
     <use x="127.783203" xlink:href="#ArialMT-52"/>
     <use x="200" xlink:href="#ArialMT-45"/>
     <use x="266.699219" xlink:href="#ArialMT-41"/>
     <use x="333.398438" xlink:href="#ArialMT-4d"/>
     <use x="416.699219" xlink:href="#ArialMT-20"/>
     <use x="444.482422" xlink:href="#ArialMT-48"/>
     <use x="516.699219" xlink:href="#ArialMT-42"/>
     <use x="583.398438" xlink:href="#ArialMT-4d"/>
     <use x="666.699219" xlink:href="#ArialMT-20"/>
     <use x="694.482422" xlink:href="#ArialMT-38"/>
     <use x="750.097656" xlink:href="#ArialMT-34"/>
     <use x="805.712891" xlink:href="#ArialMT-30"/>
     <use x="861.328125" xlink:href="#ArialMT-2e"/>
     <use x="889.111328" xlink:href="#ArialMT-36"/>
     <use x="944.726562" xlink:href="#ArialMT-20"/>
     <use x="972.509766" xlink:href="#ArialMT-47"/>
     <use x="1050.292969" xlink:href="#ArialMT-42"/>
     <use x="1116.992188" xlink:href="#ArialMT-2f"/>
     <use x="1144.775391" xlink:href="#ArialMT-73"/>
    </g>
   </g>
   <g id="legend_1">
    <g id="patch_7">
     <path d="M 692.989586 485.811269 
L 1030.31129 485.811269 
Q 1034.05129 485.811269 1034.05129 482.071269 
L 1034.05129 218.263941 
Q 1034.05129 214.523941 1030.31129 214.523941 
L 692.989586 214.523941 
Q 689.249586 214.523941 689.249586 218.263941 
L 689.249586 482.071269 
Q 689.249586 485.811269 692.989586 485.811269 
z
" style="fill:#eaeaf2;opacity:0.8;stroke:#cccccc;stroke-linejoin:miter;"/>
    </g>
    <g id="line2d_93">
     <path d="M 696.729586 228.84405 
L 734.129586 228.84405 
" style="fill:none;"/>
    </g>
    <g id="line2d_94"/>
    <g id="text_18">
     <!-- Rooflines -->
     <g style="fill:#262626;" transform="translate(749.089586 235.38905)scale(0.187 -0.187)">
      <use xlink:href="#ArialMT-52"/>
      <use x="72.216797" xlink:href="#ArialMT-6f"/>
      <use x="127.832031" xlink:href="#ArialMT-6f"/>
      <use x="183.447266" xlink:href="#ArialMT-66"/>
      <use x="211.230469" xlink:href="#ArialMT-6c"/>
      <use x="233.447266" xlink:href="#ArialMT-69"/>
      <use x="255.664062" xlink:href="#ArialMT-6e"/>
      <use x="311.279297" xlink:href="#ArialMT-65"/>
      <use x="366.894531" xlink:href="#ArialMT-73"/>
     </g>
    </g>
    <g id="line2d_95">
     <path d="M 696.729586 255.295784 
L 734.129586 255.295784 
" style="fill:none;stroke:#1b9e77;stroke-linecap:round;stroke-width:1.5;"/>
    </g>
    <g id="line2d_96"/>
    <g id="text_19">
     <!-- FP64 GFLOPs 2761.3 GFLOPs/s -->
     <g style="fill:#262626;" transform="translate(749.089586 261.840784)scale(0.187 -0.187)">
      <use xlink:href="#ArialMT-46"/>
      <use x="61.083984" xlink:href="#ArialMT-50"/>
      <use x="127.783203" xlink:href="#ArialMT-36"/>
      <use x="183.398438" xlink:href="#ArialMT-34"/>
      <use x="239.013672" xlink:href="#ArialMT-20"/>
      <use x="266.796875" xlink:href="#ArialMT-47"/>
      <use x="344.580078" xlink:href="#ArialMT-46"/>
      <use x="405.664062" xlink:href="#ArialMT-4c"/>
      <use x="461.279297" xlink:href="#ArialMT-4f"/>
      <use x="539.0625" xlink:href="#ArialMT-50"/>
      <use x="605.761719" xlink:href="#ArialMT-73"/>
      <use x="655.761719" xlink:href="#ArialMT-20"/>
      <use x="683.544922" xlink:href="#ArialMT-32"/>
      <use x="739.160156" xlink:href="#ArialMT-37"/>
      <use x="794.775391" xlink:href="#ArialMT-36"/>
      <use x="850.390625" xlink:href="#ArialMT-31"/>
      <use x="906.005859" xlink:href="#ArialMT-2e"/>
      <use x="933.789062" xlink:href="#ArialMT-33"/>
      <use x="989.404297" xlink:href="#ArialMT-20"/>
      <use x="1017.1875" xlink:href="#ArialMT-47"/>
      <use x="1094.970703" xlink:href="#ArialMT-46"/>
      <use x="1156.054688" xlink:href="#ArialMT-4c"/>
      <use x="1211.669922" xlink:href="#ArialMT-4f"/>
      <use x="1289.453125" xlink:href="#ArialMT-50"/>
      <use x="1356.152344" xlink:href="#ArialMT-73"/>
      <use x="1406.152344" xlink:href="#ArialMT-2f"/>
      <use x="1433.935547" xlink:href="#ArialMT-73"/>
     </g>
    </g>
    <g id="line2d_97">
     <path d="M 696.729586 281.747519 
L 734.129586 281.747519 
" style="fill:none;stroke:#d95f02;stroke-linecap:round;stroke-width:1.5;"/>
    </g>
    <g id="line2d_98"/>
    <g id="text_20">
     <!-- L1 5802.6 GB/s -->
     <g style="fill:#262626;" transform="translate(749.089586 288.292519)scale(0.187 -0.187)">
      <use xlink:href="#ArialMT-4c"/>
      <use x="55.615234" xlink:href="#ArialMT-31"/>
      <use x="111.230469" xlink:href="#ArialMT-20"/>
      <use x="139.013672" xlink:href="#ArialMT-35"/>
      <use x="194.628906" xlink:href="#ArialMT-38"/>
      <use x="250.244141" xlink:href="#ArialMT-30"/>
      <use x="305.859375" xlink:href="#ArialMT-32"/>
      <use x="361.474609" xlink:href="#ArialMT-2e"/>
      <use x="389.257812" xlink:href="#ArialMT-36"/>
      <use x="444.873047" xlink:href="#ArialMT-20"/>
      <use x="472.65625" xlink:href="#ArialMT-47"/>
      <use x="550.439453" xlink:href="#ArialMT-42"/>
      <use x="617.138672" xlink:href="#ArialMT-2f"/>
      <use x="644.921875" xlink:href="#ArialMT-73"/>
     </g>
    </g>
    <g id="line2d_99">
     <path d="M 696.729586 308.199253 
L 734.129586 308.199253 
" style="fill:none;stroke:#7570b3;stroke-linecap:round;stroke-width:1.5;"/>
    </g>
    <g id="line2d_100"/>
    <g id="text_21">
     <!-- L2 2597.6 GB/s -->
     <g style="fill:#262626;" transform="translate(749.089586 314.744253)scale(0.187 -0.187)">
      <use xlink:href="#ArialMT-4c"/>
      <use x="55.615234" xlink:href="#ArialMT-32"/>
      <use x="111.230469" xlink:href="#ArialMT-20"/>
      <use x="139.013672" xlink:href="#ArialMT-32"/>
      <use x="194.628906" xlink:href="#ArialMT-35"/>
      <use x="250.244141" xlink:href="#ArialMT-39"/>
      <use x="305.859375" xlink:href="#ArialMT-37"/>
      <use x="361.474609" xlink:href="#ArialMT-2e"/>
      <use x="389.257812" xlink:href="#ArialMT-36"/>
      <use x="444.873047" xlink:href="#ArialMT-20"/>
      <use x="472.65625" xlink:href="#ArialMT-47"/>
      <use x="550.439453" xlink:href="#ArialMT-42"/>
      <use x="617.138672" xlink:href="#ArialMT-2f"/>
      <use x="644.921875" xlink:href="#ArialMT-73"/>
     </g>
    </g>
    <g id="line2d_101">
     <path d="M 696.729586 334.650987 
L 734.129586 334.650987 
" style="fill:none;stroke:#e7298a;stroke-linecap:round;stroke-width:1.5;"/>
    </g>
    <g id="line2d_102"/>
    <g id="text_22">
     <!-- STREAM HBM 840.6 GB/s -->
     <g style="fill:#262626;" transform="translate(749.089586 341.195988)scale(0.187 -0.187)">
      <use xlink:href="#ArialMT-53"/>
      <use x="66.699219" xlink:href="#ArialMT-54"/>
      <use x="127.783203" xlink:href="#ArialMT-52"/>
      <use x="200" xlink:href="#ArialMT-45"/>
      <use x="266.699219" xlink:href="#ArialMT-41"/>
      <use x="333.398438" xlink:href="#ArialMT-4d"/>
      <use x="416.699219" xlink:href="#ArialMT-20"/>
      <use x="444.482422" xlink:href="#ArialMT-48"/>
      <use x="516.699219" xlink:href="#ArialMT-42"/>
      <use x="583.398438" xlink:href="#ArialMT-4d"/>
      <use x="666.699219" xlink:href="#ArialMT-20"/>
      <use x="694.482422" xlink:href="#ArialMT-38"/>
      <use x="750.097656" xlink:href="#ArialMT-34"/>
      <use x="805.712891" xlink:href="#ArialMT-30"/>
      <use x="861.328125" xlink:href="#ArialMT-2e"/>
      <use x="889.111328" xlink:href="#ArialMT-36"/>
      <use x="944.726562" xlink:href="#ArialMT-20"/>
      <use x="972.509766" xlink:href="#ArialMT-47"/>
      <use x="1050.292969" xlink:href="#ArialMT-42"/>
      <use x="1116.992188" xlink:href="#ArialMT-2f"/>
      <use x="1144.775391" xlink:href="#ArialMT-73"/>
     </g>
    </g>
    <g id="PathCollection_7">
     <defs>
      <path id="md1121a3b0a" style="stroke:#ffffff;stroke-width:1.5;"/>
     </defs>
     <g>
      <use style="fill:#ffffff;stroke:#ffffff;stroke-width:1.5;" x="715.429586" xlink:href="#md1121a3b0a" y="362.738972"/>
     </g>
    </g>
    <g id="text_23">
     <!-- Kernel Name -->
     <defs>
      <path d="M 7.328125 0 
L 7.328125 71.578125 
L 16.796875 71.578125 
L 16.796875 36.078125 
L 52.34375 71.578125 
L 65.1875 71.578125 
L 35.15625 42.578125 
L 66.5 0 
L 54 0 
L 28.515625 36.234375 
L 16.796875 24.8125 
L 16.796875 0 
z
" id="ArialMT-4b"/>
      <path d="M 7.625 0 
L 7.625 71.578125 
L 17.328125 71.578125 
L 54.9375 15.375 
L 54.9375 71.578125 
L 64.015625 71.578125 
L 64.015625 0 
L 54.296875 0 
L 16.703125 56.25 
L 16.703125 0 
z
" id="ArialMT-4e"/>
      <path d="M 40.4375 6.390625 
Q 35.546875 2.25 31.03125 0.53125 
Q 26.515625 -1.171875 21.34375 -1.171875 
Q 12.796875 -1.171875 8.203125 3 
Q 3.609375 7.171875 3.609375 13.671875 
Q 3.609375 17.484375 5.34375 20.625 
Q 7.078125 23.78125 9.890625 25.6875 
Q 12.703125 27.59375 16.21875 28.5625 
Q 18.796875 29.25 24.03125 29.890625 
Q 34.671875 31.15625 39.703125 32.90625 
Q 39.75 34.71875 39.75 35.203125 
Q 39.75 40.578125 37.25 42.78125 
Q 33.890625 45.75 27.25 45.75 
Q 21.046875 45.75 18.09375 43.578125 
Q 15.140625 41.40625 13.71875 35.890625 
L 5.125 37.0625 
Q 6.296875 42.578125 8.984375 45.96875 
Q 11.671875 49.359375 16.75 51.1875 
Q 21.828125 53.03125 28.515625 53.03125 
Q 35.15625 53.03125 39.296875 51.46875 
Q 43.453125 49.90625 45.40625 47.53125 
Q 47.359375 45.171875 48.140625 41.546875 
Q 48.578125 39.3125 48.578125 33.453125 
L 48.578125 21.734375 
Q 48.578125 9.46875 49.140625 6.21875 
Q 49.703125 2.984375 51.375 0 
L 42.1875 0 
Q 40.828125 2.734375 40.4375 6.390625 
z
M 39.703125 26.03125 
Q 34.90625 24.078125 25.34375 22.703125 
Q 19.921875 21.921875 17.671875 20.9375 
Q 15.4375 19.96875 14.203125 18.09375 
Q 12.984375 16.21875 12.984375 13.921875 
Q 12.984375 10.40625 15.640625 8.0625 
Q 18.3125 5.71875 23.4375 5.71875 
Q 28.515625 5.71875 32.46875 7.9375 
Q 36.421875 10.15625 38.28125 14.015625 
Q 39.703125 17 39.703125 22.796875 
z
" id="ArialMT-61"/>
     </defs>
     <g style="fill:#262626;" transform="translate(749.089586 367.647722)scale(0.187 -0.187)">
      <use xlink:href="#ArialMT-4b"/>
      <use x="66.699219" xlink:href="#ArialMT-65"/>
      <use x="122.314453" xlink:href="#ArialMT-72"/>
      <use x="155.615234" xlink:href="#ArialMT-6e"/>
      <use x="211.230469" xlink:href="#ArialMT-65"/>
      <use x="266.845703" xlink:href="#ArialMT-6c"/>
      <use x="289.0625" xlink:href="#ArialMT-20"/>
      <use x="316.845703" xlink:href="#ArialMT-4e"/>
      <use x="389.0625" xlink:href="#ArialMT-61"/>
      <use x="444.677734" xlink:href="#ArialMT-6d"/>
      <use x="527.978516" xlink:href="#ArialMT-65"/>
     </g>
    </g>
    <g id="PathCollection_8">
     <defs>
      <path d="M 0 3 
C 0.795609 3 1.55874 2.683901 2.12132 2.12132 
C 2.683901 1.55874 3 0.795609 3 0 
C 3 -0.795609 2.683901 -1.55874 2.12132 -2.12132 
C 1.55874 -2.683901 0.795609 -3 0 -3 
C -0.795609 -3 -1.55874 -2.683901 -2.12132 -2.12132 
C -2.683901 -1.55874 -3 -0.795609 -3 0 
C -3 0.795609 -2.683901 1.55874 -2.12132 2.12132 
C -1.55874 2.683901 -0.795609 3 0 3 
z
" id="m605da98508" style="stroke:#4c72b0;"/>
     </defs>
     <g>
      <use style="fill:#4c72b0;stroke:#4c72b0;" x="715.429586" xlink:href="#m605da98508" y="389.418612"/>
     </g>
    </g>
    <g id="text_24">
     <!-- MM default Fujitsu -->
     <defs>
      <path d="M 40.234375 0 
L 40.234375 6.546875 
Q 35.296875 -1.171875 25.734375 -1.171875 
Q 19.53125 -1.171875 14.328125 2.25 
Q 9.125 5.671875 6.265625 11.796875 
Q 3.421875 17.921875 3.421875 25.875 
Q 3.421875 33.640625 6 39.96875 
Q 8.59375 46.296875 13.765625 49.65625 
Q 18.953125 53.03125 25.34375 53.03125 
Q 30.03125 53.03125 33.6875 51.046875 
Q 37.359375 49.078125 39.65625 45.90625 
L 39.65625 71.578125 
L 48.390625 71.578125 
L 48.390625 0 
z
M 12.453125 25.875 
Q 12.453125 15.921875 16.640625 10.984375 
Q 20.84375 6.0625 26.5625 6.0625 
Q 32.328125 6.0625 36.34375 10.765625 
Q 40.375 15.484375 40.375 25.140625 
Q 40.375 35.796875 36.265625 40.765625 
Q 32.171875 45.75 26.171875 45.75 
Q 20.3125 45.75 16.375 40.96875 
Q 12.453125 36.1875 12.453125 25.875 
z
" id="ArialMT-64"/>
      <path d="M 40.578125 0 
L 40.578125 7.625 
Q 34.515625 -1.171875 24.125 -1.171875 
Q 19.53125 -1.171875 15.546875 0.578125 
Q 11.578125 2.34375 9.640625 5 
Q 7.71875 7.671875 6.9375 11.53125 
Q 6.390625 14.109375 6.390625 19.734375 
L 6.390625 51.859375 
L 15.1875 51.859375 
L 15.1875 23.09375 
Q 15.1875 16.21875 15.71875 13.8125 
Q 16.546875 10.359375 19.234375 8.375 
Q 21.921875 6.390625 25.875 6.390625 
Q 29.828125 6.390625 33.296875 8.421875 
Q 36.765625 10.453125 38.203125 13.9375 
Q 39.65625 17.4375 39.65625 24.078125 
L 39.65625 51.859375 
L 48.4375 51.859375 
L 48.4375 0 
z
" id="ArialMT-75"/>
      <path d="M 6.546875 61.375 
L 6.546875 71.578125 
L 15.328125 71.578125 
L 15.328125 61.375 
z
M -4.59375 -20.125 
L -2.9375 -12.640625 
Q -0.296875 -13.328125 1.21875 -13.328125 
Q 3.90625 -13.328125 5.21875 -11.546875 
Q 6.546875 -9.765625 6.546875 -2.640625 
L 6.546875 51.859375 
L 15.328125 51.859375 
L 15.328125 -2.828125 
Q 15.328125 -12.40625 12.84375 -16.15625 
Q 9.671875 -21.046875 2.296875 -21.046875 
Q -1.265625 -21.046875 -4.59375 -20.125 
z
" id="ArialMT-6a"/>
     </defs>
     <g style="fill:#262626;" transform="translate(749.089586 394.327362)scale(0.187 -0.187)">
      <use xlink:href="#ArialMT-4d"/>
      <use x="83.300781" xlink:href="#ArialMT-4d"/>
      <use x="166.601562" xlink:href="#ArialMT-20"/>
      <use x="194.384766" xlink:href="#ArialMT-64"/>
      <use x="250" xlink:href="#ArialMT-65"/>
      <use x="305.615234" xlink:href="#ArialMT-66"/>
      <use x="333.398438" xlink:href="#ArialMT-61"/>
      <use x="389.013672" xlink:href="#ArialMT-75"/>
      <use x="444.628906" xlink:href="#ArialMT-6c"/>
      <use x="466.845703" xlink:href="#ArialMT-74"/>
      <use x="494.628906" xlink:href="#ArialMT-20"/>
      <use x="522.412109" xlink:href="#ArialMT-46"/>
      <use x="583.496094" xlink:href="#ArialMT-75"/>
      <use x="639.111328" xlink:href="#ArialMT-6a"/>
      <use x="661.328125" xlink:href="#ArialMT-69"/>
      <use x="683.544922" xlink:href="#ArialMT-74"/>
      <use x="711.328125" xlink:href="#ArialMT-73"/>
      <use x="761.328125" xlink:href="#ArialMT-75"/>
     </g>
    </g>
    <g id="PathCollection_9">
     <defs>
      <path d="M -0 3 
L 3 -3 
L -3 -3 
z
" id="m3cac6c054a" style="stroke:#dd8452;"/>
     </defs>
     <g>
      <use style="fill:#dd8452;stroke:#dd8452;" x="715.429586" xlink:href="#m3cac6c054a" y="416.089488"/>
     </g>
    </g>
    <g id="text_25">
     <!-- MM transpose Fujitsu -->
     <g style="fill:#262626;" transform="translate(749.089586 420.998238)scale(0.187 -0.187)">
      <use xlink:href="#ArialMT-4d"/>
      <use x="83.300781" xlink:href="#ArialMT-4d"/>
      <use x="166.601562" xlink:href="#ArialMT-20"/>
      <use x="194.384766" xlink:href="#ArialMT-74"/>
      <use x="222.167969" xlink:href="#ArialMT-72"/>
      <use x="255.46875" xlink:href="#ArialMT-61"/>
      <use x="311.083984" xlink:href="#ArialMT-6e"/>
      <use x="366.699219" xlink:href="#ArialMT-73"/>
      <use x="416.699219" xlink:href="#ArialMT-70"/>
      <use x="472.314453" xlink:href="#ArialMT-6f"/>
      <use x="527.929688" xlink:href="#ArialMT-73"/>
      <use x="577.929688" xlink:href="#ArialMT-65"/>
      <use x="633.544922" xlink:href="#ArialMT-20"/>
      <use x="661.328125" xlink:href="#ArialMT-46"/>
      <use x="722.412109" xlink:href="#ArialMT-75"/>
      <use x="778.027344" xlink:href="#ArialMT-6a"/>
      <use x="800.244141" xlink:href="#ArialMT-69"/>
      <use x="822.460938" xlink:href="#ArialMT-74"/>
      <use x="850.244141" xlink:href="#ArialMT-73"/>
      <use x="900.244141" xlink:href="#ArialMT-75"/>
     </g>
    </g>
    <g id="PathCollection_10">
     <defs>
      <path d="M 0 -3 
L -3 3 
L 3 3 
z
" id="m6f5cfac7ae" style="stroke:#55a868;"/>
     </defs>
     <g>
      <use style="fill:#55a868;stroke:#55a868;" x="715.429586" xlink:href="#m6f5cfac7ae" y="442.760362"/>
     </g>
    </g>
    <g id="text_26">
     <!-- MM unrolljam Fujitsu -->
     <g style="fill:#262626;" transform="translate(749.089586 447.669112)scale(0.187 -0.187)">
      <use xlink:href="#ArialMT-4d"/>
      <use x="83.300781" xlink:href="#ArialMT-4d"/>
      <use x="166.601562" xlink:href="#ArialMT-20"/>
      <use x="194.384766" xlink:href="#ArialMT-75"/>
      <use x="250" xlink:href="#ArialMT-6e"/>
      <use x="305.615234" xlink:href="#ArialMT-72"/>
      <use x="338.916016" xlink:href="#ArialMT-6f"/>
      <use x="394.53125" xlink:href="#ArialMT-6c"/>
      <use x="416.748047" xlink:href="#ArialMT-6c"/>
      <use x="438.964844" xlink:href="#ArialMT-6a"/>
      <use x="461.181641" xlink:href="#ArialMT-61"/>
      <use x="516.796875" xlink:href="#ArialMT-6d"/>
      <use x="600.097656" xlink:href="#ArialMT-20"/>
      <use x="627.880859" xlink:href="#ArialMT-46"/>
      <use x="688.964844" xlink:href="#ArialMT-75"/>
      <use x="744.580078" xlink:href="#ArialMT-6a"/>
      <use x="766.796875" xlink:href="#ArialMT-69"/>
      <use x="789.013672" xlink:href="#ArialMT-74"/>
      <use x="816.796875" xlink:href="#ArialMT-73"/>
      <use x="866.796875" xlink:href="#ArialMT-75"/>
     </g>
    </g>
    <g id="PathCollection_11">
     <defs>
      <path d="M -3 -0 
L 3 3 
L 3 -3 
z
" id="m32079d2892" style="stroke:#c44e52;"/>
     </defs>
     <g>
      <use style="fill:#c44e52;stroke:#c44e52;" x="715.429586" xlink:href="#m32079d2892" y="469.486753"/>
     </g>
    </g>
    <g id="text_27">
     <!-- MM block 64 Fujitsu -->
     <defs>
      <path d="M 14.703125 0 
L 6.546875 0 
L 6.546875 71.578125 
L 15.328125 71.578125 
L 15.328125 46.046875 
Q 20.90625 53.03125 29.546875 53.03125 
Q 34.328125 53.03125 38.59375 51.09375 
Q 42.875 49.171875 45.625 45.671875 
Q 48.390625 42.1875 49.953125 37.25 
Q 51.515625 32.328125 51.515625 26.703125 
Q 51.515625 13.375 44.921875 6.09375 
Q 38.328125 -1.171875 29.109375 -1.171875 
Q 19.921875 -1.171875 14.703125 6.5 
z
M 14.59375 26.3125 
Q 14.59375 17 17.140625 12.84375 
Q 21.296875 6.0625 28.375 6.0625 
Q 34.125 6.0625 38.328125 11.0625 
Q 42.53125 16.0625 42.53125 25.984375 
Q 42.53125 36.140625 38.5 40.96875 
Q 34.46875 45.796875 28.765625 45.796875 
Q 23 45.796875 18.796875 40.796875 
Q 14.59375 35.796875 14.59375 26.3125 
z
" id="ArialMT-62"/>
      <path d="M 6.640625 0 
L 6.640625 71.578125 
L 15.4375 71.578125 
L 15.4375 30.765625 
L 36.234375 51.859375 
L 47.609375 51.859375 
L 27.78125 32.625 
L 49.609375 0 
L 38.765625 0 
L 21.625 26.515625 
L 15.4375 20.5625 
L 15.4375 0 
z
" id="ArialMT-6b"/>
     </defs>
     <g style="fill:#262626;" transform="translate(749.089586 474.395503)scale(0.187 -0.187)">
      <use xlink:href="#ArialMT-4d"/>
      <use x="83.300781" xlink:href="#ArialMT-4d"/>
      <use x="166.601562" xlink:href="#ArialMT-20"/>
      <use x="194.384766" xlink:href="#ArialMT-62"/>
      <use x="250" xlink:href="#ArialMT-6c"/>
      <use x="272.216797" xlink:href="#ArialMT-6f"/>
      <use x="327.832031" xlink:href="#ArialMT-63"/>
      <use x="377.832031" xlink:href="#ArialMT-6b"/>
      <use x="427.832031" xlink:href="#ArialMT-20"/>
      <use x="455.615234" xlink:href="#ArialMT-36"/>
      <use x="511.230469" xlink:href="#ArialMT-34"/>
      <use x="566.845703" xlink:href="#ArialMT-20"/>
      <use x="594.628906" xlink:href="#ArialMT-46"/>
      <use x="655.712891" xlink:href="#ArialMT-75"/>
      <use x="711.328125" xlink:href="#ArialMT-6a"/>
      <use x="733.544922" xlink:href="#ArialMT-69"/>
      <use x="755.761719" xlink:href="#ArialMT-74"/>
      <use x="783.544922" xlink:href="#ArialMT-73"/>
      <use x="833.544922" xlink:href="#ArialMT-75"/>
     </g>
    </g>
   </g>
  </g>
 </g>
 <defs>
  <clipPath id="p8d25cbaccd">
   <rect height="461.680903" width="954.086565" x="89.314725" y="33.480366"/>
  </clipPath>
 </defs>
</svg>
